<svg width="146" height="39" viewBox="0 0 146 39" fill="none" xmlns="http://www.w3.org/2000/svg">
<g clip-path="url(#clip0)">
<path fill-rule="evenodd" clip-rule="evenodd" d="M25.2928 18.2288C25.2928 14.8156 22.8479 12.9033 18.4446 12.9033H16.3367V23.7431C16.6379 23.8186 18.0677 24.1566 19.4218 24.1566C23.149 24.1546 25.2928 22.0176 25.2928 18.2288ZM16.3367 11.0645H17.954C21.416 11.0645 23.6735 9.67695 23.6735 6.45063C23.6755 3.41317 22.0561 1.98787 18.5942 1.98787C17.8045 1.98787 16.4883 2.25027 16.3367 2.28804V11.0645ZM11.9734 6.71303C11.9734 2.32581 11.4449 0.938274 9 0.0377695V0H18.2572C25.0674 0 28.1146 2.13696 28.1146 6.33931C28.1146 9.00306 26.0087 11.0645 22.7721 11.5535C26.6847 11.7026 29.7718 14.1039 29.7718 18.193C29.7718 22.9559 26.1961 25.5441 21.3801 26.1067C20.4767 26.22 19.5733 26.2578 18.5583 26.2578H11.9734V6.71303Z" fill="white"/>
<path fill-rule="evenodd" clip-rule="evenodd" d="M41.7391 5.17641L38.1654 16.054H45.4284L41.7789 5.17641H41.7391ZM53.9676 26.2558H49.1137L46.254 18.3043H37.4495L34.7015 26.2558H31.6543L38.9152 5.96361C39.33 4.87624 39.6312 3.56226 39.6312 2.7373C39.6312 1.31199 38.9152 0.524797 37.4116 0.0377695V0H44.184L53.9676 26.2558Z" fill="white"/>
<path fill-rule="evenodd" clip-rule="evenodd" d="M60.5923 6.71303C60.5923 2.32382 59.8026 0.936286 57.3557 0.0357816V0H64.9577V26.2558H60.5923V6.71303Z" fill="white"/>
<path fill-rule="evenodd" clip-rule="evenodd" d="M74.2527 6.71303C74.2527 2.32382 73.463 0.936286 71.0161 0.0357816V0H78.6181V12.9033L89.341 0H92.8787L84.4871 9.90158L94.5718 26.2558H89.1914L81.4778 12.9788L78.6161 16.5788V26.2558H74.2507V6.71303H74.2527Z" fill="white"/>
<path fill-rule="evenodd" clip-rule="evenodd" d="M106.086 5.17641L102.513 16.054H109.776L106.126 5.17641H106.086ZM118.315 26.2558H113.461L110.601 18.3043H101.797L99.0489 26.2558H96.0017L103.265 5.96361C103.677 4.87624 103.979 3.56226 103.979 2.7373C103.979 1.31199 103.265 0.524797 101.759 0.0377695V0H108.531L118.315 26.2558Z" fill="white"/>
<path fill-rule="evenodd" clip-rule="evenodd" d="M123.438 26.2558V6.71502C123.438 2.32581 122.649 0.938274 120.202 0.0377695V0H127.804V23.8544C128.029 23.8544 129.233 24.1546 130.438 24.1546H130.853H131.567C136.195 24.1546 137.362 22.5424 137.964 20.7037H138.002C138.002 22.5782 138.002 24.3792 138.002 26.2558H123.438Z" fill="white"/>
<path d="M132.6 6.03117H133.092V5.41096H135.976V4.56611L133.026 2.36356H132.6V4.58003H130.905V5.41096H132.6V6.03117ZM133.094 3.01359L135.26 4.58003H133.094V3.01359ZM135.623 8.3868C135.623 8.94936 135.312 9.23959 134.789 9.23959C134.145 9.23959 133.818 8.8778 133.818 8.10651V7.96139H133.413C133.413 8.93545 133.32 9.52187 132.53 9.52187C131.668 9.52187 131.283 8.86389 131.283 7.7308V7.13643H130.907V7.72881C130.907 9.5338 131.479 10.3945 132.536 10.3945C133.296 10.3945 133.724 9.77433 133.708 8.95732H133.716C133.774 9.62922 134.355 10.0904 134.869 10.0904C135.703 10.0904 136.066 9.47615 136.066 8.52396C136.066 8.10452 135.914 7.55587 135.733 7.20998H135.051V7.2239C135.368 7.534 135.623 8.00314 135.623 8.3868ZM130.811 13.0364C130.811 14.4438 132.145 14.8931 133.637 14.8931C135.07 14.8931 136.064 14.3365 136.064 13.0364C136.064 11.7284 135.07 11.1738 133.637 11.1738C132.145 11.1738 130.811 11.629 130.811 13.0364ZM135.659 13.0364C135.659 13.7083 134.847 14.0105 133.623 14.0105C132.406 14.0105 131.218 13.8654 131.218 13.0364C131.218 12.1995 132.406 12.0544 133.623 12.0544C134.847 12.0544 135.659 12.3586 135.659 13.0364ZM134.6 17.0519V15.6723H134.592C134.518 16.0401 134.273 16.1713 133.99 16.1276L130.903 15.6723V16.1494L133.742 16.547V16.555L130.903 17.7676V18.2009L133.742 19.4354V19.4433L130.903 19.7972V20.6559L134.598 20.1212V18.7913H134.59C134.538 19 134.422 19.1153 134.293 19.1153C134.199 19.1153 134.103 19.1014 134.018 19.0656L131.953 18.1711V18.1631L134.6 17.0519Z" fill="white"/>
<path d="M15.3895 32.5056V31.9649H11.9734V37.6323H12.5796V32.5076H15.3895V32.5056ZM19.9004 37.6303V31.9649H16.7715V34.2649C16.7715 36.6205 16.2689 37.0896 15.565 37.0896H15.4134V37.6303H15.7006C16.7854 37.6303 17.3618 36.8352 17.3618 34.4458V32.5036H19.2942V37.6284H19.9004V37.6303ZM25.0096 31.9649H24.3635L22.9815 35.3165L21.4479 31.9649H20.8018L22.6784 35.9923L22.447 36.5251C22.2795 36.9147 22.0881 37.0896 21.6972 37.0896H21.3382V37.6303H21.8328C22.3992 37.6303 22.7262 37.2646 22.9516 36.7457L25.0096 31.9649ZM29.8017 35.9685C29.8017 34.9666 29.1157 34.2967 28.0528 34.2967H26.5112V32.5056H29.4487V31.9649H25.905V37.6323H28.0528C29.1137 37.6303 29.8017 36.9624 29.8017 35.9685ZM29.1935 35.9685C29.1935 36.6762 28.7547 37.0916 27.9949 37.0916H26.5092V34.8394H27.9949C28.7547 34.8374 29.1935 35.2509 29.1935 35.9685ZM35.214 37.6303V31.9649H34.6397L31.7501 36.5808V31.9649H31.1438V37.6323H31.7181L34.6078 33.0086V37.6323H35.214V37.6303ZM40.7699 37.6303V31.9649H40.1637V34.5034H37.4655V31.9649H36.8592V37.6323H37.4655V35.0461H40.1637V37.6323H40.7699V37.6303ZM46.3278 37.6303V31.9649H45.7216V34.5034H43.0214V31.9649H42.4151V37.6323H43.0214V35.0461H45.7196V37.6323H46.3278V37.6303ZM51.9315 37.6303L49.8476 31.9629H49.3371L47.2451 37.6303H47.8913L48.3459 36.3482H50.8287L51.2834 37.6303H51.9315ZM50.6553 35.8254H48.5314L49.6003 32.8336L50.6553 35.8254ZM54.4223 35.2986H55.8283V37.6303H56.4345V31.9649H54.3186C53.2657 31.9649 52.5617 32.6169 52.5617 33.6288C52.5617 34.4398 53.0324 35.0302 53.7842 35.2131L52.474 37.6323H53.1839L54.4223 35.2986ZM55.8283 34.7579H54.3745C53.6167 34.7579 53.168 34.3365 53.168 33.6268C53.168 32.9191 53.6147 32.4957 54.3745 32.4957H55.8283V34.7579ZM63.9647 35.9685C63.9647 34.9666 63.2787 34.2967 62.2157 34.2967H60.6742V32.5056H63.6117V31.9649H60.066V37.6323H62.2137C63.2767 37.6303 63.9647 36.9624 63.9647 35.9685ZM63.3564 35.9685C63.3564 36.6762 62.9177 37.0916 62.1579 37.0916H60.6722V34.8394H62.1579C62.9177 34.8374 63.3564 35.2509 63.3564 35.9685ZM69.2653 37.6303L67.1813 31.9629H66.6708L64.5789 37.6303H65.225L65.6797 36.3482H68.1625L68.6172 37.6303H69.2653ZM67.987 35.8254H65.8632L66.9321 32.8336L67.987 35.8254ZM74.2548 37.6303V31.9649H73.6805L70.7909 36.5808V31.9649H70.1846V37.6323H70.759L73.6486 33.0086V37.6323H74.2548V37.6303ZM73.3854 30.6032H72.8748C72.8429 30.9929 72.6116 31.1917 72.2207 31.1917C71.8299 31.1917 71.5985 30.9929 71.5666 30.6032H71.0561C71.104 31.3109 71.5587 31.6051 72.2227 31.6051C72.8828 31.6071 73.3375 31.3129 73.3854 30.6032ZM76.5382 37.6303V34.6784L79.1487 37.6303H79.9543L77.2482 34.6545L79.7389 31.9649H78.9732L76.5382 34.6625V31.9649H75.932V37.6323H76.5382V37.6303ZM84.7305 37.6303L82.6465 31.9649H82.136L80.0441 37.6323H80.6902L81.1449 36.3502H83.6277L84.0823 37.6323H84.7305V37.6303ZM83.4522 35.8254H81.3283L82.3992 32.8336L83.4522 35.8254ZM89.4089 37.6303V31.9649H86.28V34.2649C86.28 36.6205 85.7774 37.0896 85.0755 37.0896H84.9239V37.6303H85.2111C86.2979 37.6303 86.8723 36.8352 86.8723 34.4458V32.5036H88.8047V37.6284H89.4089V37.6303ZM94.9429 35.9685C94.9429 34.9666 94.2489 34.2967 93.186 34.2967H91.6604V31.9649H91.0541V37.6323H93.186C94.2389 37.6303 94.9429 36.9624 94.9429 35.9685ZM94.3266 35.9685C94.3266 36.6762 93.8879 37.0916 93.1281 37.0916H91.6584V34.8394H93.1281C93.8879 34.8374 94.3266 35.2509 94.3266 35.9685ZM99.8287 35.9923H99.2225C99.0709 36.6841 98.5684 37.1393 97.8564 37.1393C97.4815 37.1393 97.1225 36.9962 96.8753 36.7418C96.5163 36.376 96.4764 35.9864 96.4764 34.7996C96.4764 33.6149 96.5163 33.2232 96.8753 32.8575C97.1225 32.603 97.4815 32.4599 97.8564 32.4599C98.5664 32.4599 99.0549 32.9131 99.2065 33.6069H99.8287C99.6373 32.5394 98.8794 31.9192 97.8564 31.9192C97.298 31.9192 96.7855 32.1259 96.4026 32.5076C95.8682 33.0404 95.8682 33.597 95.8682 34.7996C95.8682 36.0023 95.8682 36.5589 96.4026 37.0916C96.7855 37.4733 97.296 37.68 97.8564 37.68C98.8695 37.6781 99.6452 37.0578 99.8287 35.9923ZM101.809 37.6303V34.6784L104.419 37.6303H105.225L102.519 34.6545L105.01 31.9649H104.244L101.809 34.6625V31.9649H101.203V37.6323H101.809V37.6303ZM109.999 37.6303L107.915 31.9629H107.405L105.313 37.6303H105.959L106.414 36.3482H108.896L109.351 37.6303H109.999ZM108.721 35.8254H106.597L107.668 32.8336L108.721 35.8254ZM112.49 35.2986H113.896V37.6303H114.502V31.9649H112.386C111.333 31.9649 110.629 32.6169 110.629 33.6288C110.629 34.4398 111.1 35.0302 111.85 35.2131L110.54 37.6323H111.25L112.49 35.2986ZM113.896 34.7579H112.442C111.684 34.7579 111.238 34.3365 111.238 33.6268C111.238 32.9191 111.684 32.4957 112.442 32.4957H113.896V34.7579ZM122.04 36.0798C122.04 35.6504 121.897 35.3006 121.618 35.0282C121.482 34.8931 121.378 34.8294 121.115 34.7181C121.33 34.6227 121.418 34.575 121.538 34.4557C121.809 34.2013 121.953 33.8594 121.953 33.4538C121.953 32.5633 121.283 31.9649 120.275 31.9649H118.136V37.6323H120.347C121.4 37.6303 122.04 37.0419 122.04 36.0798ZM121.344 33.4856C121.344 34.1059 120.93 34.4716 120.226 34.4716H118.74V32.5056H120.226C120.93 32.5056 121.344 32.8714 121.344 33.4856ZM121.432 36.048C121.432 36.6841 120.993 37.0916 120.291 37.0916H118.742V35.0143H120.291C120.993 35.0123 121.432 35.4099 121.432 36.048ZM127.229 34.408C127.229 33.7162 127.189 32.9986 126.695 32.5056C126.312 32.124 125.801 31.9172 125.241 31.9172C124.683 31.9172 124.17 32.124 123.787 32.5056C123.301 32.9907 123.253 33.6824 123.253 34.3603V34.7976C123.253 35.9287 123.269 36.5728 123.787 37.0896C124.17 37.4713 124.675 37.6781 125.241 37.6781C125.807 37.6781 126.312 37.4713 126.695 37.0896C127.213 36.5728 127.229 35.9267 127.229 34.7976V34.408ZM126.621 35.0759C126.621 35.728 126.613 36.3422 126.222 36.7318C125.959 36.9942 125.616 37.1374 125.239 37.1374C124.864 37.1374 124.521 36.9942 124.258 36.7318C123.891 36.3661 123.859 35.8095 123.859 35.1952V34.6307C123.859 33.8514 123.859 33.261 124.258 32.8634C124.521 32.601 124.872 32.4579 125.239 32.4579C125.606 32.4579 125.957 32.601 126.222 32.8634C126.597 33.2372 126.621 33.8276 126.621 34.4955V35.0759ZM127.883 37.0896V39H128.482V37.6303H132.291V39H132.889V37.0896H132.211V31.9649H129.106V33.8753C129.106 35.2588 128.906 36.2786 128.388 37.0896H127.883ZM129.066 37.0896C129.521 36.2945 129.68 35.2986 129.68 34.249V32.5056H131.605V37.0896H129.066ZM138 37.6303L135.916 31.9629H135.406L133.314 37.6303H133.96L134.414 36.3482H136.897L137.352 37.6303H138ZM136.722 35.8254H134.598L135.669 32.8336L136.722 35.8254Z" fill="white"/>
</g>
<defs>
<clipPath id="clip0">
<rect width="129" height="39" fill="white" transform="translate(9)"/>
</clipPath>
</defs>
</svg>
