<svg width="117" height="62" viewBox="0 0 117 62" fill="none" xmlns="http://www.w3.org/2000/svg">
<path fill-rule="evenodd" clip-rule="evenodd" d="M10.769 26.3718V21.1991C10.769 18.7307 10.0666 18.2044 8.75204 18.2044C7.3654 18.2044 6.68108 18.7489 6.68108 21.1991V27.1886C6.68108 30.6733 17.432 40.2928 17.432 45.2114V53.7963C17.432 60.1487 12.8579 61.9819 8.71602 61.9819C4.59212 62 0 60.1669 0 53.8144V51.1827L6.66307 47.2442V53.1973C6.66307 55.6476 7.34739 56.1921 8.73403 56.1921C10.0666 56.1921 10.751 55.6476 10.751 53.1973V48.0791C10.769 41.2547 0 35.4649 0 27.5516V20.6001C0 14.2658 4.59212 12.4146 8.69801 12.4146C12.8399 12.4146 17.414 14.2658 17.414 20.6001V22.3425L10.769 26.3718Z" fill="white"/>
<path fill-rule="evenodd" clip-rule="evenodd" d="M55.5376 55.4298H60.9401L62.7769 61.9456H48.8745V12.4146H55.5376V55.4298Z" fill="white"/>
<path fill-rule="evenodd" clip-rule="evenodd" d="M108.968 12.4146V18.9304H102.611V61.9456H95.9303V18.9304H90.0956L89.3933 12.4146H108.968Z" fill="white"/>
<path fill-rule="evenodd" clip-rule="evenodd" d="M82.5502 12.4146H72.5556L67.4592 61.9456H73.51L74.9507 48.7869H79.6689L80.9294 61.9456H87.6646L82.5502 12.4146ZM75.563 42.2711L77.0036 24.1031H77.814L79.0386 42.2711H75.563Z" fill="white"/>
<path fill-rule="evenodd" clip-rule="evenodd" d="M31.3525 12.4146H24.3833V61.9456H31.0464V18.3677C33.7656 18.3677 35.1343 18.4948 35.1343 23.1411V34.993C35.1343 36.5902 33.7116 37.0802 32.1449 37.1891L33.7116 43.0697C39.0601 42.5071 41.7973 40.0024 41.7973 32.9784V22.1792C41.7973 15.4274 38.7179 12.4146 31.3525 12.4146Z" fill="white"/>
<path fill-rule="evenodd" clip-rule="evenodd" d="M110.805 6.49767V1.94205H112.84C113.254 1.94205 113.578 1.97835 113.795 2.05095L114.299 2.48654C114.425 2.70434 114.497 2.92214 114.497 3.17624C114.497 3.50294 114.389 3.77519 114.173 3.99298C113.975 4.21078 113.632 4.35598 113.2 4.41043L113.56 4.62823C113.741 4.79158 113.885 4.99123 114.065 5.24533L114.857 6.47952H114.083L113.47 5.53572C113.308 5.26348 113.146 5.06383 113.038 4.90048L112.732 4.61008L112.444 4.48303L112.12 4.46488H111.417V6.49767H110.805ZM111.435 3.93853H112.732C113.02 3.93853 113.236 3.90223 113.38 3.84778L113.741 3.57554L113.867 3.17624L113.614 2.64989C113.47 2.50469 113.218 2.45024 112.876 2.45024H111.435V3.93853Z" fill="white"/>
<path fill-rule="evenodd" clip-rule="evenodd" d="M108.266 4.33782C108.266 6.71546 110.229 8.65749 112.642 8.65749C115.037 8.65749 117 6.71546 117 4.33782C117 1.94204 115.037 0 112.642 0C110.229 0 108.266 1.96019 108.266 4.33782ZM108.806 4.33782C108.806 2.23244 110.535 0.526347 112.642 0.526347C114.749 0.526347 116.46 2.23244 116.46 4.33782C116.46 6.42506 114.749 8.1493 112.642 8.1493C110.517 8.1493 108.806 6.44321 108.806 4.33782Z" fill="white"/>
</svg>
