<svg width="93" height="48" viewBox="0 0 93 48" fill="none" xmlns="http://www.w3.org/2000/svg">
<path fill-rule="evenodd" clip-rule="evenodd" d="M4.11995 24.0248C4.11995 11.9983 23.3426 2.21318 46.9754 2.21318C70.603 2.21318 89.8308 11.9983 89.8308 24.0248C89.8308 36.0513 70.603 45.8365 46.9754 45.8365C23.3426 45.8365 4.11995 36.0513 4.11995 24.0248ZM92.9957 24.0248C92.9957 10.7843 72.3929 0.0600281 46.9754 0.0600281C21.5579 0.0600281 0.955078 10.7895 0.955078 24.03C0.955078 37.2706 21.5579 48 46.9754 48C72.3929 47.9896 92.9957 37.2602 92.9957 24.0248Z" fill="white"/>
<path fill-rule="evenodd" clip-rule="evenodd" d="M15.7625 30.7644H12.3279V16.4136H15.7625V21.8042H21.0442V16.4136H24.4789V30.7644H21.0442V24.5955H15.7625V30.7644Z" fill="white"/>
<path fill-rule="evenodd" clip-rule="evenodd" d="M38.067 27.7552C37.2317 30.7074 34.5286 31.1587 32.5726 31.1587C31.1821 31.1587 26.8914 30.8526 26.8914 25.545C26.8914 21.9339 29.3662 19.9624 32.8216 19.9624C37.958 19.9624 38.233 24.4762 38.2745 25.7473L38.2953 26.3181H30.1807C30.2015 27.3246 30.6581 29.0679 32.7178 29.0679C33.6362 29.0679 34.5908 28.6787 34.8606 27.7552H38.067ZM35.0059 24.5748C34.9644 22.3386 33.548 22.0533 32.7801 22.0533C32.365 22.0533 30.492 22.0118 30.1807 24.5748H35.0059Z" fill="white"/>
<path fill-rule="evenodd" clip-rule="evenodd" d="M43.4111 21.6019C44.2671 20.4553 45.6576 19.9624 47.074 19.9624C48.506 19.9624 50.6124 20.3515 50.6124 24.2324V30.7696H47.4528V24.7408C47.4528 23.7135 47.349 22.0533 45.6628 22.0533C43.5823 22.0533 43.5408 24.4503 43.5408 24.9016V30.7696H40.3811V20.3515H43.4215V21.6019H43.4111Z" fill="white"/>
<path fill-rule="evenodd" clip-rule="evenodd" d="M59.9564 20.3515H63.7594L59.5829 24.4503L64.1382 30.7644H60.3715L57.4141 26.4426L56.335 27.5269V30.7644H53.1753V16.4136H56.335V24.3102L59.9564 20.3515Z" fill="white"/>
<path fill-rule="evenodd" clip-rule="evenodd" d="M67.9881 24.5748C68.2994 22.0118 70.1724 22.0533 70.5926 22.0533C71.3605 22.0533 72.7717 22.3386 72.8184 24.5748H67.9881ZM72.668 27.7552C72.3982 28.6787 71.4383 29.0679 70.5252 29.0679C68.4654 29.0679 68.0037 27.3246 67.9881 26.3181H76.1026L76.0819 25.7473C76.0404 24.4762 75.7706 19.9624 70.629 19.9624C67.1787 19.9624 64.6987 21.9339 64.6987 25.545C64.6987 30.8526 68.9843 31.1587 70.3799 31.1587C72.3359 31.1587 75.039 30.7074 75.8692 27.7552H72.668Z" fill="white"/>
<path fill-rule="evenodd" clip-rule="evenodd" d="M81.3428 16.4136V30.7644H78.1831V16.4136H81.3428Z" fill="white"/>
</svg>
