<svg width="139" height="45" viewBox="0 0 139 45" fill="none" xmlns="http://www.w3.org/2000/svg">
<path d="M115.701 38.3604C115.699 38.3604 115.275 38.7371 115.275 38.7371C114.67 39.277 114.047 39.8548 113.294 39.5658C113.087 39.4905 112.941 39.2145 112.905 39.0003C112.871 37.4552 113.569 36.0236 114.246 34.6296L114.419 34.265C116.365 31.0244 118.628 27.206 121.95 24.5559C122.51 24.1531 123.118 23.8146 123.759 24.0786C123.906 24.2164 124.078 24.4553 124.078 24.6937C124.078 24.7694 124.011 24.9703 123.972 25.0327C123.044 26.5282 122.16 28.0982 121.301 29.6053C119.621 32.5825 117.879 35.6596 115.701 38.3608L115.701 38.3604ZM97.6982 30.7232C97.5711 30.8117 95.3265 30.0577 94.8927 27.9852C94.5247 26.2009 95.7569 24.8067 96.949 24.1038C97.4607 23.7017 98.2315 23.5639 98.7969 23.764C99.3216 24.1162 99.4639 24.7447 99.4639 25.422C99.4639 25.8374 99.4086 26.264 99.3599 26.6533L99.349 26.7415C98.9751 28.1354 98.4027 29.5047 97.6982 30.7234V30.7232ZM89.124 39.1519C88.8951 38.8128 88.8192 38.442 88.8116 38.041C88.7677 35.5781 91.425 31.1674 93.3008 28.7644H93.3049C94.091 30.4808 95.871 31.5841 96.9455 32.049C95.6109 35.0137 91.0338 41.3627 89.1245 39.152L89.124 39.1519ZM121.519 39.5893C121.075 39.8907 120.451 39.659 120.684 38.9684C121.265 37.2098 123.576 33.626 123.576 33.626L130.013 22.2417H125.604C125.394 22.585 124.946 23.3733 124.946 23.3733C124.742 23.0345 124.132 22.281 123.881 22.1183C122.804 21.4394 121.224 21.7604 120.133 22.3757C115.394 25.1396 111.935 30.6005 109.208 34.8585C109.208 34.8585 106.336 39.5922 104.743 39.9443C103.498 40.0449 103.627 38.3735 103.681 37.9841C104.162 35.1699 105.279 32.4946 106.405 30.0703C108.694 28.4876 111.307 26.4151 113.681 24.1416C118.834 19.2297 123.178 13.6649 123.813 12.4216C123.813 12.4216 123.125 12.5599 122.314 12.5848C118.35 18.0991 110.237 26.1138 107.778 27.3064C108.868 24.6932 115.907 12.2202 121.897 6.25414L122.84 5.34941C124.297 3.92998 125.808 2.47292 126.985 2.23421C127.109 2.22171 127.269 2.23421 127.407 2.52359C127.46 3.62879 127.047 4.44537 126.574 5.37481L125.91 6.73163C125.91 6.73163 126.85 6.55574 127.467 6.35424C128.183 5.01081 128.976 3.50301 128.684 1.70715C128.586 1.12922 128.167 0.689689 127.619 0.58911C125.832 0.249957 123.884 1.56847 122.317 2.63653L122.254 2.67394C114.199 8.96716 107.397 18.0368 101.45 30.422C101.019 30.7481 99.3534 31.138 99.0704 30.9493C99.6576 29.7437 100.397 28.1229 100.767 26.3644C100.831 25.8619 100.891 25.3471 100.891 24.8448C100.891 23.7636 100.63 22.7465 99.6591 22.0433C98.5204 21.4779 97.113 21.7419 96.1641 22.1687C91.9132 23.9273 88.7362 28.2738 86.4436 31.8531C85.2106 34.1273 83.9811 36.563 83.6407 39.3523C83.4009 41.5376 83.8891 42.9444 85.1351 43.6481C86.4164 44.3009 88.0292 43.6224 88.6628 43.2961C92.9693 41.0352 95.9784 36.5009 98.3502 32.3554C98.4445 32.343 99.7395 32.3056 100.719 32.054C100.732 32.054 100.738 32.054 100.759 32.0671C100.703 32.2547 100.197 33.7626 100.197 33.7626C98.6938 38.1586 97.9986 41.1484 99.4185 42.9197C101.448 45.4196 104.807 42.8322 107.54 39.4149C106.953 43.5098 109.081 44.1507 110.704 43.8369C112.567 43.3347 114.644 41.3496 115.607 40.3325C115.298 41.5255 115.382 43.6612 117.077 43.8745C118.239 44.0887 119.109 43.4584 120.115 42.9181C123.724 40.9584 128.045 34.4283 129.166 32.5403H127.695C126.101 34.9434 124.072 38.0941 121.52 39.5898L121.519 39.5893ZM65.9178 15.2046H70.0485L72.3798 11.4286H68.2483L65.9178 15.2046ZM131.901 5.17345C128.752 6.9575 125.487 8.11282 121.534 7.71092C120.439 8.94231 119.373 10.2108 118.39 11.5171C123.937 12.9239 129.818 9.79623 133.097 6.81958C136.567 3.81731 138.346 0.0367158 138.346 0.0367158C138.346 0.0367158 135.745 3.00087 131.901 5.17358L131.901 5.17345ZM97.1681 4.21915C96.5113 11.7306 90.656 16.1403 89.2073 16.4911C88.3294 16.6668 86.8313 16.2776 88.1686 13.1252C90.1382 8.87908 93.5006 5.27458 97.1083 3.42777C97.1961 3.74186 97.1939 3.94233 97.168 4.21901L97.1681 4.21915ZM85.7588 23.1486C85.3393 22.2444 84.3435 21.6665 83.2822 21.7292C79.8359 22.0434 76.465 24.8696 74.695 28.927C73.7662 31.0123 73.2594 32.733 72.927 35.4712C73.9986 34.2406 76.1845 32.2184 78.665 31.1129C78.665 31.1129 79.0025 28.4877 80.7237 26.1512C81.375 25.1838 82.6784 23.6263 84.1419 24.0407C85.4206 24.468 84.9712 27.9978 83.2717 31.4135C82.0142 33.9261 80.09 36.439 78.143 38.172C76.4217 39.6292 73.8748 41.3876 71.6466 40.0311C70.2431 39.2025 69.5273 37.4686 69.6786 35.2327C70.3492 28.8896 73.2447 23.488 77.3881 17.3331C81.6607 11.6178 86.3705 5.75179 92.7154 2.62321C94.0096 1.9701 95.208 1.8194 96.244 2.22137C96.244 2.22137 90.288 5.48727 87.4488 11.5296C86.7266 13.0623 85.7221 15.1343 86.7336 16.9684C87.2621 17.9228 88.2007 17.9983 88.9563 17.9481C92.4364 17.144 94.6847 13.9033 96.5219 10.9391C97.587 8.69069 98.5336 6.45475 98.5336 3.96726C98.5336 3.66586 98.5179 3.2641 98.4923 2.96229C100.155 2.08338 103.564 3.6406 103.564 3.6406C106.228 4.5202 111.902 8.85408 113.815 9.68274C114.748 8.60267 116.282 6.96986 117.146 6.15322L115.896 5.38689C113.894 4.16841 111.778 3.01268 109.695 1.86972C104.966 -0.704959 101.116 0.199221 99.1563 0.902724C98.3862 1.17892 97.6824 1.41763 97.6824 1.41763C96.2283 -0.164991 93.8436 -0.0146377 92.0865 0.412737C85.7674 2.22144 79.9006 6.63023 73.6108 14.2803C68.9863 20.2721 66.1175 25.4476 64.5891 30.5596C63.4106 34.0011 63.0524 39.0632 65.9288 42.0654C68.3744 44.6146 71.6173 44.0625 73.9075 43.1457C78.8692 40.7088 83.3285 35.4578 85.5509 29.4162C86.0871 27.6202 86.6822 25.0828 85.759 23.1482L85.7588 23.1486ZM30.7605 17.3207C30.7522 17.3458 29.9178 19.2548 29.9178 19.2548C29.7972 19.3552 29.6065 19.3052 29.3879 19.2548L29.0134 19.1917C27.8373 18.8276 26.9501 18.0487 26.6767 17.1193C26.2994 15.3104 27.849 13.8911 28.5318 13.3763C29.1868 12.9237 30.2053 12.6851 30.7967 13.1501C31.1614 13.5772 31.2996 14.1298 31.2996 14.7331C31.2998 15.5494 31.0471 16.4663 30.7605 17.3207H30.7605ZM28.9681 20.9505C28.9681 20.9505 28.9302 21.0639 28.9115 21.101C28.9066 21.101 27.0147 24.178 27.0147 24.178C25.8729 25.6982 24.4473 27.608 22.6651 28.5246C22.1369 28.7005 21.4067 28.8138 21.0347 28.3494C20.2458 27.4071 20.6525 26.1008 20.9827 25.0457L21.0996 24.6688C22.0466 22.1066 23.5492 19.8451 25.0116 17.747C25.0299 17.7347 25.0708 17.7222 25.0856 17.7222C25.0891 17.7348 25.0949 17.7348 25.0975 17.76C26.0152 19.5182 27.736 20.3344 29.023 20.7118C29.0308 20.7118 29.039 20.7242 29.039 20.7495C29.0392 20.7869 29.0182 20.8375 28.9681 20.9501L28.9681 20.9505ZM52.6349 18.9282C53.4811 17.7603 55.9443 14.6324 56.5448 14.1049C58.5644 12.3331 59.3717 13.1127 59.4415 13.665C57.5566 17.0313 55.3321 20.8874 53.2405 24.3545C53.2446 24.3421 52.586 25.3467 52.586 25.3467C51.6622 26.7533 50.7321 27.9591 49.2149 28.8007C48.9985 28.8639 48.6419 28.8891 48.4046 28.7127C48.1188 28.5242 48.0061 28.2101 48.0383 27.8833C48.1292 26.8034 49.232 23.5004 52.6349 18.928V18.9282ZM31.6607 11.2911C29.0496 9.58285 23.8018 12.8487 19.5987 18.4504C15.755 23.4754 14.0952 29.3157 15.9015 32.0165C18.5884 35.1944 23.5765 30.5721 25.6977 28.0979L25.9714 27.8086C27.4138 26.2636 28.5283 24.4044 29.607 22.6206C29.607 22.6206 30.5984 20.9876 30.6458 20.9121C31.2585 20.7995 31.9966 20.6236 32.8282 20.3848C32.8164 20.4222 29.6463 25.7358 29.9697 28.3735C30.0704 29.1781 29.9935 32.1173 32.8713 33.009C36.7067 33.6501 39.7697 30.6852 42.4713 28.0474C42.4713 28.0474 42.9317 27.6082 43.1921 27.3574C43.1411 27.562 43.0904 27.7667 43.0403 27.9715C41.9174 31.8656 43.431 32.6826 44.3778 32.9841C47.2393 33.8136 50.6577 29.6681 50.6687 29.6681C50.5801 30.9739 50.3209 32.0542 51.7013 32.9209C53.0042 33.3861 54.3228 32.6771 55.325 32.0113C58.9352 29.4739 61.8436 25.5028 64.1925 22.0701H62.6941C62.6764 22.0701 58.9964 27.3887 56.607 28.5448C56.6035 28.5448 56.1684 28.7674 55.9178 28.5912C55.6077 28.3273 55.7301 27.7787 55.9213 27.3901C55.9333 27.3647 65.1474 11.4286 65.1474 11.4286H60.797C60.797 11.4286 60.3218 12.1954 60.2831 12.2456C60.2538 12.2206 60.1841 12.0887 60.1357 12.0256C57.4404 8.3076 51.3364 14.0265 46.7409 20.6582C44.9716 23.2084 42.7192 26.0797 40.3836 28.1525C40.3836 28.1525 36.9234 31.3154 35.445 29.043C34.9046 28.0881 35.0708 26.6922 35.3757 25.7756C37.097 20.8893 40.0631 16.455 43.4384 13.7789C44.3912 13.0382 45.4268 12.824 45.9408 13.1382C46.4304 13.4276 46.5095 14.143 46.1997 14.6329C45.4136 14.6079 44.7838 14.8461 44.2718 15.3737C43.2632 16.4289 42.9128 17.4465 43.2335 18.4014C44.7913 20.6121 47.8982 16.2407 47.7479 13.5777C47.6942 12.6229 47.1833 11.7187 46.4211 11.2786C45.285 10.6007 43.5517 10.7762 42.43 11.3167C40.9285 11.8817 38.5515 13.8536 37.1641 15.3864C35.4174 17.3086 32.4219 19.4438 31.485 19.2046C31.7919 18.3878 34.3222 13.2254 31.6604 11.2915L31.6607 11.2911ZM53.5278 39.2397C48.4042 35.9484 41.4507 35.3709 30.2369 38.4734C18.2823 41.2748 14.2961 43.0706 9.06167 39.4656C7.05065 37.6946 6.32962 34.8432 6.86807 30.7361C8.11681 24.0406 11.4913 17.597 17.4856 10.4501C20.8315 6.73211 23.9349 3.54139 28.033 2.2603C31.1738 1.45649 30.8801 3.91796 30.5001 4.26995C30.0991 4.26995 29.4254 4.33298 28.9048 4.67172C28.4823 4.99852 27.3223 6.05374 27.26 7.47317C27.1702 9.64608 29.4253 9.19379 30.3979 8.00078C31.4463 6.65639 32.9957 4.08177 31.7769 1.6823C31.2661 0.828234 30.3835 0.238011 29.2876 0.0369905C25.5351 -0.176868 22.0401 1.60691 18.8146 3.57901C11.7626 8.46516 6.11991 15.2359 2.92748 22.6471C1.08665 27.1187 -0.578067 33.5241 1.91736 38.7377C3.84769 42.3551 7.85526 44.2766 12.6368 43.8748C15.9902 43.5235 20.0447 42.4426 22.7725 41.7901C25.4996 41.1365 39.4596 36.3511 44.0468 44.6797C44.0468 44.6797 45.5721 41.727 49.384 41.6641C52.5179 41.3757 57.0391 42.5688 60.3313 44.9801C59.2344 43.3351 56.1246 40.9108 53.5303 39.2399L53.5278 39.2397Z" fill="white"/>
</svg>
