<svg width="139" height="45" fill="none" xmlns="http://www.w3.org/2000/svg"><path d="M115.701 38.36c-.002 0-.426.377-.426.377-.605.54-1.228 1.118-1.981.829-.207-.076-.353-.352-.389-.566-.034-1.545.664-2.976 1.341-4.37l.173-.365c1.946-3.24 4.209-7.059 7.531-9.71.56-.402 1.168-.74 1.809-.476.147.137.319.376.319.615 0 .075-.067.276-.106.339-.928 1.495-1.812 3.065-2.671 4.572-1.68 2.978-3.422 6.055-5.6 8.756zm-18.003-7.637c-.127.089-2.371-.665-2.805-2.738-.368-1.784.864-3.178 2.056-3.881.512-.402 1.282-.54 1.848-.34.525.352.667.98.667 1.658 0 .415-.055.842-.104 1.231l-.011.088a16.697 16.697 0 01-1.65 3.982zm-8.574 8.429c-.229-.34-.305-.71-.312-1.111-.044-2.463 2.613-6.874 4.489-9.277h.004c.786 1.717 2.566 2.82 3.64 3.285-1.334 2.965-5.911 9.314-7.82 7.103h-.001zm32.395.437c-.444.302-1.068.07-.835-.62.581-1.76 2.892-5.343 2.892-5.343l6.437-11.384h-4.409c-.21.343-.658 1.131-.658 1.131-.204-.338-.814-1.092-1.065-1.255-1.077-.679-2.657-.358-3.748.258-4.739 2.764-8.198 8.224-10.925 12.482 0 0-2.872 4.734-4.465 5.086-1.245.1-1.116-1.57-1.062-1.96.481-2.814 1.598-5.49 2.724-7.914a60.933 60.933 0 007.276-5.928c5.153-4.912 9.497-10.477 10.132-11.72 0 0-.688.138-1.499.163-3.964 5.514-12.077 13.529-14.536 14.721 1.09-2.613 8.129-15.086 14.119-21.052l.943-.905c1.457-1.419 2.968-2.876 4.145-3.115.124-.012.284 0 .422.29.053 1.105-.36 1.921-.833 2.85l-.664 1.358s.94-.176 1.557-.378c.716-1.343 1.509-2.851 1.217-4.647-.098-.578-.517-1.017-1.065-1.118-1.787-.339-3.735.98-5.302 2.048l-.063.037c-8.055 6.293-14.857 15.363-20.804 27.748-.431.326-2.097.716-2.38.527.588-1.205 1.327-2.826 1.697-4.585.064-.502.124-1.017.124-1.52 0-1.08-.261-2.098-1.232-2.8-1.139-.566-2.546-.302-3.495.125-4.25 1.758-7.428 6.105-9.72 9.684-1.233 2.274-2.463 4.71-2.803 7.5-.24 2.185.248 3.591 1.494 4.295 1.281.653 2.894-.026 3.528-.352 4.306-2.26 7.315-6.795 9.687-10.94.095-.013 1.39-.05 2.369-.302.013 0 .019 0 .04.013-.056.188-.562 1.696-.562 1.696-1.503 4.396-2.198 7.385-.779 9.157 2.03 2.5 5.389-.088 8.122-3.505-.587 4.095 1.541 4.736 3.164 4.422 1.863-.502 3.94-2.487 4.903-3.505-.309 1.194-.225 3.33 1.47 3.542 1.162.215 2.032-.416 3.038-.956 3.609-1.96 7.93-8.49 9.051-10.378h-1.471c-1.594 2.403-3.623 5.554-6.175 7.05h-.001zM65.918 15.205h4.13l2.332-3.776h-4.132l-2.33 3.776zM131.9 5.173c-3.149 1.784-6.414 2.94-10.367 2.538a60.625 60.625 0 00-3.144 3.806c5.547 1.407 11.428-1.72 14.707-4.697 3.47-3.003 5.249-6.783 5.249-6.783s-2.6 2.963-6.444 5.137zM97.168 4.22c-.657 7.512-6.512 11.921-7.96 12.272-.879.176-2.377-.213-1.04-3.366 1.97-4.246 5.333-7.85 8.94-9.697.088.314.086.514.06.791zm-11.41 18.93c-.419-.905-1.414-1.483-2.476-1.42-3.446.314-6.817 3.14-8.587 7.198-.929 2.085-1.436 3.806-1.768 6.544 1.072-1.23 3.257-3.253 5.738-4.358 0 0 .337-2.625 2.059-4.962.651-.967 1.954-2.525 3.418-2.11 1.279.427.83 3.957-.87 7.372-1.258 2.513-3.182 5.026-5.129 6.759-1.721 1.457-4.268 3.216-6.496 1.86-1.404-.83-2.12-2.563-1.968-4.8.67-6.342 3.566-11.744 7.71-17.899 4.272-5.715 8.982-11.581 15.326-14.71 1.295-.653 2.493-.804 3.529-.402 0 0-5.956 3.266-8.795 9.309-.722 1.532-1.727 3.604-.715 5.438.528.955 1.467 1.03 2.222.98 3.48-.804 5.729-4.045 7.566-7.009 1.065-2.248 2.012-4.484 2.012-6.972 0-.301-.016-.703-.042-1.005 1.663-.879 5.072.679 5.072.679 2.664.88 8.338 5.213 10.251 6.042.933-1.08 2.467-2.713 3.331-3.53l-1.25-.766c-2.002-1.219-4.118-2.374-6.201-3.517C104.966-.705 101.116.2 99.156.903c-.77.276-1.474.515-1.474.515C96.228-.165 93.844-.015 92.086.413 85.767 2.22 79.901 6.63 73.612 14.28c-4.625 5.992-7.493 11.168-9.022 16.28-1.178 3.441-1.537 8.503 1.34 11.505 2.445 2.55 5.688 1.998 7.978 1.08 4.962-2.436 9.422-7.687 11.644-13.729.536-1.796 1.131-4.333.208-6.268zm-54.996-5.83c-.009.025-.843 1.934-.843 1.934-.12.1-.311.05-.53 0l-.375-.063c-1.176-.364-2.063-1.143-2.336-2.073-.378-1.809 1.172-3.228 1.855-3.743.655-.452 1.673-.69 2.265-.226.364.427.503.98.503 1.583 0 .816-.253 1.733-.54 2.588zm-1.793 3.63s-.038.113-.056.15c-.005 0-1.897 3.077-1.897 3.077-1.142 1.52-2.568 3.43-4.35 4.347-.528.176-1.258.289-1.63-.176-.79-.942-.383-2.248-.052-3.303l.117-.377c.947-2.562 2.45-4.824 3.912-6.922a.194.194 0 01.074-.025c.003.013.009.013.012.038.917 1.758 2.638 2.574 3.925 2.952.008 0 .016.012.016.038 0 .037-.02.087-.07.2zm23.667-2.023c.846-1.168 3.31-4.296 3.91-4.823 2.02-1.772 2.827-.992 2.896-.44a397.009 397.009 0 01-6.2 10.69c.004-.013-.655.992-.655.992-.924 1.406-1.854 2.612-3.371 3.454-.217.063-.573.088-.81-.088-.286-.189-.399-.503-.367-.83.091-1.08 1.194-4.383 4.597-8.955zM31.66 11.291c-2.611-1.708-7.86 1.558-12.062 7.16-3.844 5.024-5.504 10.865-3.697 13.566 2.686 3.177 7.675-1.445 9.796-3.92l.273-.288c1.443-1.545 2.557-3.405 3.636-5.188 0 0 .991-1.633 1.039-1.709.613-.113 1.35-.288 2.182-.527-.012.037-3.182 5.35-2.858 7.988.1.805.024 3.744 2.901 4.636 3.836.641 6.899-2.324 9.6-4.962l.721-.69-.152.614c-1.123 3.895.391 4.712 1.338 5.013 2.861.83 6.28-3.316 6.29-3.316-.088 1.306-.347 2.386 1.033 3.253 1.303.465 2.622-.244 3.624-.91 3.61-2.537 6.519-6.508 8.867-9.94h-1.498c-.018 0-3.698 5.318-6.087 6.474-.004 0-.439.222-.69.046-.31-.264-.187-.812.004-1.2.012-.026 9.226-15.962 9.226-15.962h-4.35s-.475.766-.514.817c-.03-.025-.099-.157-.147-.22-2.696-3.718-8.8 2-13.395 8.632-1.77 2.55-4.022 5.422-6.357 7.494 0 0-3.46 3.163-4.939.891-.54-.955-.374-2.35-.07-3.267 1.722-4.887 4.688-9.321 8.063-11.997.953-.74 1.989-.955 2.503-.64.49.289.569 1.004.259 1.494-.786-.025-1.416.213-1.928.74-1.009 1.056-1.36 2.074-1.038 3.028 1.557 2.211 4.664-2.16 4.514-4.823-.054-.955-.565-1.86-1.327-2.3-1.136-.677-2.87-.502-3.991.039-1.502.565-3.879 2.537-5.266 4.07-1.747 1.922-4.742 4.057-5.679 3.818.307-.817 2.837-5.98.175-7.913zM53.528 39.24c-5.124-3.292-12.077-3.87-23.291-.767-11.955 2.802-15.94 4.598-21.175.993-2.011-1.771-2.732-4.623-2.194-8.73 1.249-6.695 4.623-13.139 10.618-20.286 3.345-3.718 6.449-6.909 10.547-8.19 3.14-.804 2.847 1.658 2.467 2.01-.4 0-1.075.063-1.595.402-.423.327-1.583 1.382-1.645 2.801-.09 2.173 2.165 1.72 3.138.528 1.048-1.345 2.598-3.92 1.379-6.319-.51-.854-1.393-1.444-2.49-1.645-3.752-.214-7.247 1.57-10.472 3.542C11.763 8.465 6.12 15.236 2.927 22.647c-1.84 4.472-3.505 10.877-1.01 16.09 1.93 3.618 5.938 5.54 10.72 5.138 3.353-.352 7.408-1.432 10.136-2.085 2.727-.654 16.687-5.439 21.274 2.89 0 0 1.525-2.953 5.337-3.016 3.134-.288 7.655.905 10.947 3.316-1.097-1.645-4.206-4.07-6.8-5.74h-.003z" fill="#fff"/></svg>