<svg width="149" height="52" fill="none" xmlns="http://www.w3.org/2000/svg"><path d="M56.989 7.307a51.98 51.98 0 00-.479 2.378l-.048.035h-.31l-.05-.035-.03-.977c-.012-.45-.067-.721-.162-.816a.43.43 0 00-.201-.114c-.109-.022-.393-.038-.856-.047l-.74-.016-2.929.016c-.402.003-.629.133-.683.385-.026.13-.051.655-.073 1.572l-.051.035h-.31l-.048-.035-.179-.958c-.035-.2-.08-.408-.128-.632l-.172-.788.038-.142c.278.022.48.035.607.035.045 0 .118-.007.214-.016.137-.193.294-.424.47-.696l3.106-4.812a.721.721 0 00.09-.17c0-.096-.441-.19-1.32-.285l-.05-.045V.841l.044-.028c.31.019.885.028 1.728.028.868 0 1.41-.01 1.631-.028l.064.038a125.42 125.42 0 00-.045 2.156V5.11c0 .616.016 1.315.045 2.093l.137.006a6.37 6.37 0 00.658-.044l.032.142zM54.697 5.4V3.918l-.02-2.397-.118-.006c-.118.186-.294.467-.523.84l-2.8 4.857h3.438a67.41 67.41 0 00.023-1.812zm8.646.68a10.695 10.695 0 00-.109 1.616l-.051.047-3.592-.028c-.6 0-1.022.01-1.27.028l-.049-.047v-.14l.026-.06c.243-.151.377-.249.396-.287.029-.063.048-.278.054-.651l.016-1.097V2.985c0-.775-.022-1.28-.064-1.518-.016-.095-.073-.155-.169-.18a5.73 5.73 0 00-.578-.048l-.048-.047V.857l.048-.044c.332.019.846.028 1.542.028.62 0 1.798-.01 3.532-.028l.054.038-.064.543c-.02.174-.035.32-.045.44l-.035.455-.048.054h-.287l-.051-.047c-.003-.443-.029-.696-.08-.76-.035-.044-.214-.082-.53-.107-.32-.025-.597-.038-.837-.038-.287 0-.577.013-.868.035-.035.341-.054.816-.054 1.423V3.86c.258.015.47.025.632.025l.648-.006c.303-.004.476-.029.514-.073.054-.06.086-.278.102-.661l.051-.047h.307l.051.047a28.85 28.85 0 000 2.084l-.051.044h-.332l-.051-.047c0-.377-.026-.598-.08-.668-.054-.07-.214-.117-.479-.139a8.176 8.176 0 00-1.312 0v1.493c0 .427.01.84.025 1.242h.67c.962 0 1.552-.038 1.77-.114a.169.169 0 00.08-.053.893.893 0 00.092-.294l.118-.607.048-.054h.3l.058.047zm8.62 1.629l-.048.034a59.993 59.993 0 00-1.52-.028c-.711 0-1.22.01-1.522.028l-.045-.044-.007-.332.048-.047c.336-.02.53-.035.578-.048a.216.216 0 00.17-.18c.041-.234.063-.74.063-1.518V2.941c0-.658-.016-1.192-.044-1.6h-2.998c-.03.407-.045.942-.045 1.6v2.63c0 .775.022 1.28.064 1.518.016.095.073.155.169.18.048.013.24.029.572.048l.054.047v.332l-.045.044a39.577 39.577 0 00-3.046 0l-.045-.044v-.329l.048-.047c.335-.02.53-.035.578-.048a.216.216 0 00.17-.18c.04-.234.063-.74.063-1.518v-2.59c0-.774-.022-1.28-.064-1.517-.016-.095-.073-.155-.169-.18a5.73 5.73 0 00-.578-.048l-.048-.047V.857l.048-.044 2.689.028h2.777c.393 0 1.086-.01 2.085-.028l.048.044v.332l-.054.047a5.62 5.62 0 00-.578.048.216.216 0 00-.17.18c-.04.234-.063.74-.063 1.518v2.586c0 .775.022 1.28.064 1.518.016.095.073.155.17.18.044.013.239.028.583.047l.048.048v.348zm8.219-.013l-.045.047a79.674 79.674 0 00-1.325-.028c-.607 0-1.169.01-1.69.028l-.044-.047v-.307l.051-.053.431-.026c.182-.01.272-.073.272-.19 0-.07-.045-.22-.138-.458l-.399-1.03a90.504 90.504 0 00-2.538 0l-.217.597c-.166.452-.246.737-.246.85 0 .124.077.196.233.222.086.012.252.025.505.038l.047.047V7.7l-.047.048a50.702 50.702 0 00-1.175-.029c-.134 0-.47.01-1.003.029l-.057-.048v-.32l.054-.047c.338-.019.546-.085.626-.199.076-.114.367-.793.871-2.04l1.287-3.196.434-1.12h.703l2.618 6.1c.102.23.195.364.278.392.108.038.265.06.469.06l.045.054v.313zm-3.133-2.634l-1.056-2.564-1.012 2.564c.27.01.619.016 1.053.016.415 0 .754-.006 1.015-.016zm9.576-2.719c0 .67-.23 1.195-.693 1.571a2.424 2.424 0 01-1.568.566c-.198 0-.396-.022-.597-.07a1.893 1.893 0 00-.172-.35l.102-.108c.137.045.265.07.38.07.332 0 .6-.117.801-.351.201-.234.3-.56.3-.98 0-.91-.411-1.366-1.238-1.366-.1 0-.297.019-.594.06-.029.079-.045.61-.045 1.6V5.57c0 .775.022 1.28.064 1.518.016.095.073.155.17.18.028.006.255.022.676.048l.054.053v.323l-.047.047c-.45-.019-.99-.028-1.62-.028-.708 0-1.216.01-1.522.028l-.048-.044v-.329l.054-.054c.332-.019.524-.034.572-.047a.216.216 0 00.169-.18c.041-.234.064-.74.064-1.518V2.985c0-.775-.023-1.28-.064-1.518-.016-.095-.074-.155-.17-.18a5.726 5.726 0 00-.577-.048l-.048-.053V.86l.054-.047c.323.019.818.028 1.488.028.278 0 .674-.006 1.194-.016.52-.01.82-.016.9-.016.904 0 1.488.228 1.76.68.13.237.2.522.2.854zM93.7.841c-.038.24-.06.49-.064.75l-.01.815-.047.048h-.31l-.054-.045c-.016-.417-.035-.66-.055-.733-.038-.13-.143-.206-.316-.231a13.75 13.75 0 00-.929-.016h-.66c-.007.114-.01.566-.01 1.36v2.779c0 .775.022 1.28.064 1.518.016.095.073.155.169.18a5.6 5.6 0 00.578.047l.048.048v.329l-.048.047a29.057 29.057 0 00-1.523-.028c-.706 0-1.213.01-1.52.028l-.045-.044v-.326l.051-.047c.336-.02.53-.035.578-.048a.216.216 0 00.17-.18c.041-.234.063-.74.063-1.518V2.792c0-.806-.006-1.259-.016-1.36h-.705c-.59 0-.933.02-1.031.054a.21.21 0 00-.11.073 1.015 1.015 0 00-.073.313 5.696 5.696 0 00-.044.534l-.048.048h-.31l-.054-.048-.01-.838a5.363 5.363 0 00-.06-.73l.044-.048c.195.032.904.048 2.124.048h2.001c1.128 0 1.836-.016 2.124-.048l.038.051zm8.11 6.855l-.045.047a79.492 79.492 0 00-1.325-.028c-.606 0-1.168.01-1.689.028l-.044-.047v-.307l.05-.053.432-.026c.182-.01.271-.073.271-.19 0-.07-.045-.22-.137-.458l-.4-1.03a90.373 90.373 0 00-2.538 0l-.217.597c-.166.452-.246.737-.246.85 0 .124.077.196.234.222.086.012.252.025.504.038l.048.047V7.7l-.048.048a50.706 50.706 0 00-1.175-.029c-.134 0-.47.01-1.002.029l-.052-.045v-.32l.055-.046c.338-.02.546-.086.626-.2.076-.114.367-.793.871-2.04l1.284-3.199.434-1.12h.702l2.618 6.1c.103.23.195.364.278.392.109.038.265.06.47.06l.044.054v.313h-.003zm-3.132-2.634L97.62 2.498l-1.012 2.564c.271.01.62.016 1.053.016.419 0 .757-.006 1.016-.016zm13.419 2.634l-.048.047a29.036 29.036 0 00-1.523-.028c-.705 0-1.213.01-1.519.028l-.045-.044v-.332l.051-.047a5.64 5.64 0 00.578-.048.216.216 0 00.169-.18c.042-.234.064-.74.064-1.518v-3.31l-1.102 2.235c-.063.124-.277.582-.641 1.37l-.904 1.957h-.332a39.871 39.871 0 00-.696-1.53l-.693-1.455-1.293-2.666v3.396c0 .775.022 1.28.064 1.518.016.095.073.155.169.18.051.013.243.029.578.048l.048.047v.332l-.048.044a21.256 21.256 0 00-2.197 0l-.048-.044v-.329l.048-.047c.336-.02.53-.035.578-.048a.218.218 0 00.17-.18c.041-.234.063-.74.063-1.518v-2.59c0-.774-.022-1.28-.063-1.517-.016-.095-.074-.155-.17-.18a5.703 5.703 0 00-.578-.048l-.048-.047V.857l.048-.044a24.294 24.294 0 002.35 0l.463 1.046.316.674 1.571 3.253.757-1.517 1.181-2.502c.138-.297.275-.616.406-.958.37.02.622.029.75.029.645 0 1.14-.01 1.482-.029l.047.045v.338l-.047.044c-.336.02-.53.035-.578.048a.218.218 0 00-.17.18c-.041.234-.063.74-.063 1.518v2.586c0 .775.022 1.28.063 1.518.016.095.074.155.17.18.048.013.242.028.578.047l.047.048v.335h-.003zm6.392-1.616a10.766 10.766 0 00-.108 1.616l-.051.047-3.592-.028c-.6 0-1.022.01-1.271.028l-.048-.047v-.14l.026-.06c.242-.151.376-.249.396-.287.028-.063.048-.278.054-.651l.016-1.097V2.985c0-.775-.022-1.28-.064-1.518-.016-.095-.073-.155-.169-.18a5.736 5.736 0 00-.578-.048l-.048-.047V.857l.048-.044c.332.019.846.028 1.542.028.619 0 1.798-.01 3.531-.028l.055.038-.064.543c-.019.174-.035.32-.045.44l-.035.455-.048.054h-.287l-.051-.047c-.004-.443-.029-.696-.08-.76-.035-.044-.214-.082-.53-.107a10.76 10.76 0 00-.837-.038c-.287 0-.578.013-.868.035a14.66 14.66 0 00-.055 1.423V3.86c.259.015.47.025.633.025l.648-.006c.303-.004.476-.029.514-.073.054-.06.086-.278.102-.661l.051-.047h.307l.051.047a28.33 28.33 0 000 2.084l-.051.044h-.332l-.052-.047c0-.377-.025-.598-.079-.668-.055-.07-.214-.117-.479-.139a8.176 8.176 0 00-1.313 0v1.493c0 .427.01.84.026 1.242h.671c.961 0 1.551-.038 1.768-.114a.17.17 0 00.08-.053c.032-.045.064-.143.093-.294l.118-.607.048-.054h.3l.057.047zm8.771 1.616l-.051.047a28.994 28.994 0 00-1.52-.028c-.705 0-1.213.01-1.52.028l-.051-.044v-.332l.055-.047a5.57 5.57 0 00.577-.048.218.218 0 00.17-.18c.041-.234.064-.74.064-1.518V4.395c-.17-.016-.703-.025-1.6-.025-.83 0-1.376.01-1.641.025v1.18c0 .774.022 1.28.064 1.517.016.095.073.155.169.18.048.013.243.029.578.048l.051.047v.329l-.045.047a29.153 29.153 0 00-1.52-.028c-.708 0-1.216.01-1.523.028l-.048-.044v-.332l.048-.047c.336-.02.53-.035.578-.048a.218.218 0 00.17-.18c.041-.234.063-.74.063-1.518v-2.59c0-.774-.022-1.28-.063-1.517-.016-.095-.074-.155-.17-.18a5.703 5.703 0 00-.578-.048l-.048-.047V.857l.048-.044c.316.019.824.028 1.523.028.716 0 1.223-.01 1.52-.028l.045.044v.338l-.051.044a5.77 5.77 0 00-.578.048.216.216 0 00-.169.18c-.042.234-.064.74-.064 1.518v.806c.348.016.83.025 1.443.025.961 0 1.561-.01 1.798-.025v-.806c0-.775-.023-1.28-.064-1.518-.016-.095-.074-.155-.17-.18a5.568 5.568 0 00-.577-.048l-.055-.047V.857l.051-.044c.32.019.827.028 1.52.028.719 0 1.226-.01 1.52-.028l.051.044v.338l-.045.044a5.653 5.653 0 00-.584.048.216.216 0 00-.169.18c-.042.234-.064.74-.064 1.518V5.57c0 .775.022 1.28.064 1.518.016.095.073.155.169.18.048.013.243.029.578.048l.051.047v.332zm7.133-6.855a5.17 5.17 0 00-.064.75l-.01.815-.047.048h-.31l-.054-.045c-.016-.417-.036-.66-.055-.733-.038-.13-.143-.206-.316-.231-.067-.01-.377-.016-.929-.016h-.661c-.006.114-.009.566-.009 1.36v2.779c0 .775.022 1.28.063 1.518.016.095.074.155.17.18.048.013.242.028.578.047l.048.048v.329l-.048.047a29.086 29.086 0 00-1.523-.028c-.706 0-1.214.01-1.52.028l-.045-.044v-.326l.051-.047c.335-.02.53-.035.578-.048a.216.216 0 00.169-.18c.042-.234.064-.74.064-1.518V2.792c0-.806-.006-1.259-.016-1.36h-.705c-.591 0-.933.02-1.032.054a.221.221 0 00-.108.073.999.999 0 00-.074.313 5.732 5.732 0 00-.044.534l-.048.048h-.31l-.054-.048-.01-.838a5.375 5.375 0 00-.06-.73l.044-.048c.195.032.904.048 2.123.048h2.002c1.127 0 1.836-.016 2.124-.048l.038.051zM57.257 17.412c0 1.205-.354 2.147-1.063 2.833-.69.664-1.629 1-2.82 1-1.127 0-2.01-.314-2.653-.943-.641-.629-.964-1.502-.964-2.618 0-1.568.604-2.656 1.814-3.256.549-.276 1.226-.412 2.03-.412 1.15 0 2.044.298 2.682.895.648.604.974 1.439.974 2.501zm-1.523.257c0-.946-.192-1.698-.575-2.252-.383-.556-.945-.835-1.685-.835-.977 0-1.626.437-1.945 1.306a4.288 4.288 0 00-.246 1.502c0 1.009.189 1.802.562 2.387.39.604.97.905 1.744.905.938 0 1.567-.459 1.89-1.376a4.96 4.96 0 00.255-1.637zm8.484 1.255c0 .718-.291 1.268-.875 1.647-.498.329-1.13.493-1.897.493-.156 0-.456-.01-.904-.025-.27-.01-.498-.016-.683-.016-.16 0-.673.01-1.535.029l-.045-.035v-.342l.048-.047c.335-.019.53-.035.578-.05a.216.216 0 00.169-.18c.041-.235.064-.74.064-1.518v-2.587c0-.778-.023-1.28-.064-1.518-.016-.095-.074-.155-.17-.18a5.711 5.711 0 00-.577-.047l-.048-.048v-.332l.048-.044 2.672.028 2.04-.009c.233-.006.431-.019.594-.038l.054.047a4.71 4.71 0 00-.063.728l-.01.838-.048.05h-.316l-.048-.044-.029-.566c-.035-.25-.124-.402-.268-.449-.102-.035-.437-.054-1.009-.054h-1.293c-.029.81-.044 1.31-.044 1.496v.936c.9 0 1.545.035 1.934.104 1.15.2 1.724.778 1.724 1.733zm-1.492.095c0-.465-.137-.826-.415-1.075-.245-.222-.568-.342-.967-.358a23.07 23.07 0 00-.785-.01v2.932c.153.022.341.035.561.035.377 0 .649-.029.821-.089.246-.088.444-.265.594-.528.128-.234.191-.537.191-.907zm8.234-3.361c0 .67-.23 1.195-.692 1.571a2.424 2.424 0 01-1.568.566c-.198 0-.396-.022-.597-.07a1.889 1.889 0 00-.172-.35l.102-.108c.137.044.265.07.38.07.332 0 .6-.117.801-.352.201-.233.3-.56.3-.98 0-.91-.411-1.366-1.238-1.366a5.31 5.31 0 00-.594.06c-.029.08-.045.61-.045 1.6v2.587c0 .778.022 1.28.064 1.518.016.094.073.154.17.18.028.006.255.022.676.05l.054.054v.323l-.048.047c-.45-.019-.99-.028-1.618-.028-.71 0-1.217.009-1.523.028l-.048-.044v-.33l.054-.053c.332-.019.524-.035.572-.05a.216.216 0 00.169-.18c.041-.235.064-.74.064-1.518v-2.587c0-.778-.023-1.28-.064-1.517-.016-.095-.074-.155-.17-.18a5.761 5.761 0 00-.577-.048l-.048-.054v-.322l.054-.048c.322.02.817.029 1.488.029.278 0 .674-.007 1.194-.016.52-.01.82-.016.9-.016.904 0 1.488.228 1.76.68.13.237.2.522.2.854zm8.126 5.352l-.044.048a80.31 80.31 0 00-1.325-.028c-.607 0-1.169.01-1.69.028l-.044-.047v-.307l.051-.054.431-.025c.182-.01.272-.073.272-.19 0-.07-.045-.221-.138-.458l-.399-1.031c-.453-.006-.92-.01-1.392-.01-.255 0-.639.004-1.146.01l-.217.598c-.166.452-.246.736-.246.85 0 .123.076.196.233.221.086.013.252.026.504.038l.048.05v.314l-.048.047a50.627 50.627 0 00-1.175-.028c-.134 0-.469.01-1.002.028l-.051-.044v-.316l.054-.05c.338-.02.546-.086.626-.2.076-.114.367-.794.871-2.04l1.29-3.193.435-1.12h.702l2.618 6.1c.102.231.195.36.278.392.109.038.265.06.47.06l.044.054v.304h-.01zm-3.132-2.633l-1.057-2.564-1.012 2.564c.272.01.62.016 1.054.016.418 0 .757-.007 1.015-.016zm9.259.411c0 .793-.303 1.397-.91 1.821-.526.36-1.21.544-2.05.544-.919 0-1.65-.19-2.193-.566l-.035-.082c.02-.24.029-.459.029-.655s-.01-.477-.029-.84l.035-.036h.281l.029.035c.099.535.278.94.54 1.208.293.307.65.462 1.076.462.54 0 .964-.168 1.273-.503.291-.313.435-.73.435-1.25 0-.505-.17-.89-.508-1.16-.31-.243-.725-.366-1.248-.366a5.3 5.3 0 00-.642.038l-.06-.048v-.474l.06-.038c.175.013.322.019.444.019.3 0 .533-.032.702-.098.21-.082.39-.23.533-.449.134-.206.202-.449.202-.727 0-.2-.048-.386-.144-.557-.205-.373-.533-.556-.987-.556-.313 0-.59.107-.833.322-.214.19-.377.478-.489.867l-.028.034h-.224l-.029-.034a7.52 7.52 0 00-.108-1.091l.045-.054a4.083 4.083 0 012.011-.528c.584 0 1.063.095 1.443.288.492.246.738.632.738 1.15 0 .437-.17.798-.508 1.082-.3.253-.68.411-1.14.474v.089c1.057 0 1.743.246 2.056.743.154.243.233.56.233.936zm8.427-1.376c0 1.205-.355 2.147-1.064 2.833-.69.664-1.628 1-2.82 1-1.126 0-2.01-.314-2.652-.943-.642-.629-.965-1.502-.965-2.618 0-1.568.604-2.656 1.814-3.256.55-.276 1.226-.412 2.03-.412 1.15 0 2.044.298 2.683.895.65.604.973 1.439.973 2.501zm-1.52.257c0-.946-.192-1.698-.575-2.252-.383-.556-.945-.835-1.686-.835-.977 0-1.625.437-1.944 1.306a4.288 4.288 0 00-.246 1.502c0 1.009.188 1.802.562 2.387.39.604.97.905 1.743.905.939 0 1.568-.459 1.89-1.376.17-.487.256-1.03.256-1.637zm8.339 1.154c0 .819-.399 1.45-1.2 1.903-.396.221-.904.332-1.526.332-.198 0-.361 0-.489-.006l-1.181-.026c-.422 0-.747.01-.977.029l-.048-.048v-.136l.025-.06c.243-.151.377-.25.396-.287.029-.06.048-.275.055-.652l.016-1.094V16.3c0-.777-.023-1.28-.064-1.517-.016-.095-.074-.155-.17-.18a5.687 5.687 0 00-.578-.048l-.047-.047v-.332l.047-.045c.294.02.799.029 1.51.029.454 0 .866-.01 1.23-.026.29-.012.536-.018.734-.018.92 0 1.523.208 1.808.62.15.218.226.47.226.752 0 .461-.182.85-.549 1.16a1.96 1.96 0 01-.543.329 5.55 5.55 0 01-.712.212c1.357.054 2.037.6 2.037 1.635zm-1.724-3.096c0-.72-.38-1.081-1.136-1.081-.25 0-.464.012-.64.038-.012.341-.018.657-.018.948v1.35c.076.007.227.01.453.01.597 0 .987-.19 1.175-.566a1.51 1.51 0 00.166-.699zm.21 3.247c0-.977-.516-1.467-1.554-1.467-.131 0-.281.007-.45.016v2.264c0 .243.006.484.019.718.134.022.326.035.568.035.46 0 .818-.143 1.067-.43.236-.276.35-.652.35-1.136zm9.966 2.036l-.045.048a80.31 80.31 0 00-1.325-.028c-.607 0-1.169.01-1.689.028l-.045-.047v-.307l.051-.054.431-.025c.182-.01.272-.073.272-.19 0-.07-.045-.221-.138-.458l-.399-1.031c-.453-.006-.919-.01-1.392-.01-.255 0-.638.004-1.146.01l-.217.598c-.166.452-.246.736-.246.85 0 .123.077.196.233.221.086.013.252.026.505.038l.047.05v.314l-.047.047a50.69 50.69 0 00-1.175-.028c-.134 0-.47.01-1.003.028l-.051-.044v-.316l.054-.05c.339-.02.546-.086.626-.2.077-.114.367-.794.872-2.04l1.29-3.193c.095-.246.239-.62.434-1.12h.702l2.618 6.1c.103.231.195.36.278.392.109.038.265.06.469.06l.045.054v.304h-.009zm-3.133-2.633l-1.056-2.564-1.013 2.564c.272.01.62.016 1.054.016.415 0 .757-.007 1.015-.016zm11.737 2.633l-.051.048a28.961 28.961 0 00-1.52-.028c-.705 0-1.213.009-1.519.028l-.051-.044v-.332l.054-.048c.335-.019.53-.035.578-.05a.215.215 0 00.169-.18c.042-.235.064-.74.064-1.518v-1.18c-.169-.015-.703-.025-1.6-.025-.83 0-1.376.01-1.641.025v1.18c0 .778.023 1.28.064 1.518.016.094.073.154.169.18.048.012.243.028.578.05l.051.048v.329l-.044.047a29.172 29.172 0 00-1.52-.028c-.709 0-1.217.009-1.523.028l-.048-.044v-.332l.048-.048c.335-.019.53-.035.578-.05a.217.217 0 00.169-.18c.041-.235.064-.74.064-1.518v-2.587c0-.777-.023-1.28-.064-1.517a.212.212 0 00-.169-.18 5.701 5.701 0 00-.578-.048l-.048-.047v-.332l.048-.045c.316.02.823.029 1.523.029.715 0 1.223-.01 1.52-.029l.044.045v.338l-.051.044a5.77 5.77 0 00-.578.048.215.215 0 00-.169.18c-.041.234-.064.74-.064 1.518v.806c.348.016.83.025 1.443.025.961 0 1.562-.01 1.798-.025v-.806c0-.778-.022-1.281-.064-1.518-.016-.095-.073-.155-.169-.18a5.618 5.618 0 00-.578-.048l-.054-.047v-.332l.051-.045c.319.02.827.029 1.519.029.719 0 1.227-.01 1.52-.029l.051.045v.338l-.044.044a5.686 5.686 0 00-.585.048.217.217 0 00-.169.18c-.041.234-.064.74-.064 1.518v2.586c0 .778.023 1.28.064 1.518a.212.212 0 00.169.18c.048.013.243.029.578.05l.051.048v.323zm8.522.013l-.048.035a60.038 60.038 0 00-1.542-.029c-.705 0-1.21.01-1.51.029l-.045-.044v-.332l.048-.048c.342-.019.537-.035.584-.05a.218.218 0 00.17-.18c.041-.235.064-.74.064-1.518v-3.611l-3.088 5.783a25.55 25.55 0 00-.948-.019c-.185 0-.61.006-1.281.019l-.047-.044v-.332l.047-.048c.336-.019.53-.035.578-.05a.218.218 0 00.17-.18c.041-.235.063-.74.063-1.518v-2.587c0-.777-.022-1.28-.063-1.517-.016-.095-.074-.155-.17-.18a5.685 5.685 0 00-.578-.048l-.047-.047v-.332l.044-.045a38.984 38.984 0 003.046 0l.045.045v.332l-.051.047c-.335.019-.53.035-.578.047a.215.215 0 00-.169.18c-.042.235-.064.74-.064 1.518v3.684l3.087-5.856c.431.02.725.029.878.029.112 0 .562-.01 1.354-.029l.048.044v.333l-.054.047c-.336.019-.53.035-.578.047a.216.216 0 00-.169.18c-.042.234-.064.74-.064 1.518v2.587c0 .777.022 1.28.064 1.517.016.095.073.155.169.18.045.013.239.029.584.051l.048.048v.344h.003zm7.647 0l-.048.035a39.63 39.63 0 00-3.043 0l-.044-.035-.007-.341.048-.048c.335-.019.53-.035.578-.05a.215.215 0 00.169-.18c.042-.235.064-.74.064-1.518v-2.637c0-.958-.016-1.477-.045-1.556a9.358 9.358 0 00-.737-.044c-1.086 0-1.632.42-1.632 1.258 0 .478.211.857.632 1.142.189.123.384.209.588.253.169.035.46.063.878.082l.006.136a45.31 45.31 0 00-1.29 1.941c-.52.822-.846 1.354-.973 1.594a15.46 15.46 0 00-.91-.029c-.221 0-.601.01-1.137.029l-.051-.035v-.341l.038-.048c.396-.038.767-.272 1.111-.699.256-.382.514-.765.776-1.15.329-.475.601-.87.814-1.19l-.035-.053c-.533-.067-.974-.24-1.325-.525a1.527 1.527 0 01-.594-1.236c0-.601.253-1.04.76-1.325.403-.221.933-.332 1.59-.332.17 0 .374.006.617.016a50.71 50.71 0 003.138-.01l.048.044v.333l-.054.047c-.336.019-.53.035-.578.047a.216.216 0 00-.169.18c-.042.234-.064.74-.064 1.518v2.587c0 .777.022 1.28.064 1.517.016.095.073.155.169.18.045.013.239.029.584.051l.048.048v.344h.016zM57.257 34.338l-.048.035a59.95 59.95 0 00-1.542-.029c-.706 0-1.21.01-1.51.029l-.045-.045v-.332l.048-.047c.342-.02.537-.035.584-.05a.216.216 0 00.17-.18c.041-.235.063-.74.063-1.519v-3.61l-3.087 5.783a25.592 25.592 0 00-.948-.02c-.185 0-.61.007-1.28.02l-.048-.045v-.332l.047-.047c.336-.02.53-.035.578-.05a.216.216 0 00.17-.18c.041-.235.063-.74.063-1.519v-2.586c0-.778-.022-1.28-.064-1.518-.015-.095-.073-.155-.169-.18a5.69 5.69 0 00-.578-.047l-.047-.048v-.332l.044-.044a41.036 41.036 0 003.046 0l.045.044v.332l-.051.048a5.6 5.6 0 00-.578.047.216.216 0 00-.17.18c-.04.234-.063.74-.063 1.518v3.684l3.087-5.856c.431.019.725.028.878.028.112 0 .562-.01 1.354-.028l.048.044v.332l-.054.047c-.336.02-.53.035-.578.048a.216.216 0 00-.17.18c-.04.234-.063.74-.063 1.518v2.586c0 .778.022 1.28.064 1.518.015.095.073.155.169.18.044.013.24.029.584.05l.048.048v.345h.003zm11.44-.013l-.051.048a28.981 28.981 0 00-1.52-.029c-.706 0-1.213.01-1.52.029l-.05-.045v-.332l.053-.047c.336-.019.53-.035.578-.05a.216.216 0 00.17-.18c.041-.235.064-.74.064-1.519v-1.179c-.17-.016-.703-.025-1.6-.025-.83 0-1.376.01-1.641.025v1.18c0 .777.022 1.28.064 1.517.016.095.073.155.169.18.048.013.243.029.578.05l.05.048v.33l-.044.047a29.155 29.155 0 00-1.52-.029c-.708 0-1.216.01-1.523.029l-.047-.045v-.332l.047-.047c.336-.019.53-.035.578-.05a.216.216 0 00.17-.18c.041-.235.063-.74.063-1.519v-2.586c0-.778-.022-1.28-.063-1.518a.213.213 0 00-.17-.18 5.694 5.694 0 00-.578-.047l-.047-.048v-.332l.047-.044c.316.019.824.028 1.523.028.716 0 1.223-.01 1.52-.028l.045.044v.339l-.051.044c-.335.019-.53.035-.578.047a.216.216 0 00-.17.18c-.04.235-.063.74-.063 1.518v.806c.348.016.83.026 1.443.026.961 0 1.561-.01 1.797-.026v-.806c0-.778-.022-1.28-.063-1.518-.016-.094-.074-.154-.17-.18a5.598 5.598 0 00-.578-.047l-.054-.048v-.332l.051-.044c.32.02.827.029 1.52.029.718 0 1.226-.01 1.52-.029l.051.044v.339l-.045.044a5.671 5.671 0 00-.584.047.216.216 0 00-.17.18c-.04.235-.063.74-.063 1.518v2.587c0 .778.022 1.28.064 1.517.016.095.073.155.169.18.048.013.243.03.578.051l.051.048v.322zm8.186 0l-.044.048a79.575 79.575 0 00-1.325-.029c-.607 0-1.169.01-1.69.029l-.044-.048v-.306l.051-.054.431-.026c.182-.01.272-.072.272-.19 0-.069-.045-.22-.138-.458l-.399-1.03a90.504 90.504 0 00-2.538 0l-.217.597c-.166.452-.246.737-.246.85 0 .124.077.197.233.222.086.013.252.025.505.038l.047.05v.313l-.047.048a51.009 51.009 0 00-1.175-.029c-.135 0-.47.01-1.003.029l-.051-.044v-.316l.054-.051c.339-.02.546-.086.626-.2.077-.113.367-.793.872-2.039l1.29-3.193c.095-.247.239-.62.434-1.12h.702l2.618 6.1c.103.23.195.36.278.392.109.038.265.06.47.06l.044.054v.303h-.01zm-3.132-2.634l-1.056-2.564-1.013 2.564c.272.01.62.016 1.054.016.415 0 .757-.006 1.015-.016zm10.361-4.195v.322l-.054.047c-.345.054-.588.146-.728.282-.14.136-.422.613-.846 1.432-.415.806-.83 1.61-1.249 2.413-.712 1.306-1.223 2.052-1.532 2.241a1.535 1.535 0 01-.82.222c-.138 0-.288-.022-.445-.07l-.047-.072c.003-.067.006-.114.006-.146 0-.332-.048-.787-.144-1.366l.045-.07.163-.025.073.029c.265.43.569.645.913.645.275 0 .482-.086.626-.253a1.91 1.91 0 00.233-.395 107.695 107.695 0 01-1.823-4.089c-.14-.341-.262-.553-.354-.635-.08-.07-.307-.114-.687-.136l-.054-.048v-.322l.048-.06c.201.022.721.035 1.561.035.473 0 .961-.01 1.466-.029l.054.054v.322l-.045.048c-.054.003-.233.025-.54.063-.13.016-.197.07-.197.158 0 .025.019.098.06.221.093.282.31.79.652 1.528l.67 1.442.82-1.746c.215-.452.368-.813.46-1.081a1.1 1.1 0 00.074-.294c0-.086-.112-.152-.332-.2a5.99 5.99 0 00-.47-.088l-.054-.047v-.33l.055-.053c.316.022.75.035 1.302.035.46 0 .824-.01 1.086-.029l.054.045zm7.848 6.823l-.054.06a38.822 38.822 0 00-.859-.035c-.16 0-.307.003-.44.01-.195.01-.32.015-.371.015a.435.435 0 01-.278-.088c-.185-.14-.421-.37-.705-.69l-2.302-2.548v1.16c0 .778.022 1.281.063 1.518.016.095.074.155.17.18.047.013.242.029.578.051l.05.047v.33l-.044.047a29.124 29.124 0 00-1.52-.029c-.709 0-1.216.01-1.523.029l-.048-.044v-.333l.048-.047c.335-.019.53-.035.578-.05a.216.216 0 00.17-.18c.04-.235.063-.74.063-1.518v-2.587c0-.778-.022-1.28-.064-1.518-.016-.094-.073-.154-.169-.18a5.755 5.755 0 00-.578-.047l-.048-.048v-.332l.048-.044c.316.02.824.029 1.523.029.715 0 1.223-.01 1.52-.029l.045.044v.332l-.052.048c-.335.019-.53.035-.577.047a.216.216 0 00-.17.18c-.041.234-.063.74-.063 1.518v1.214c.16-.167.514-.525 1.056-1.072.288-.29.489-.5.607-.632.322-.354.54-.604.648-.743.179-.228.268-.389.268-.484 0-.038-.016-.066-.044-.082l-.055-.044v-.279l.061-.047c.36.02.703.029 1.019.029.217 0 .54-.01.967-.029l.054.047v.33l-.05.044c-.355.012-.617.057-.786.132-.138.064-.355.219-.652.472-.328.278-.753.664-1.273 1.16-.195.19-.454.436-.78.743l2.826 2.906c.39.401.757.632 1.102.695l.044.051v.29h-.003zm8.343.019l-.048.035a59.958 59.958 0 00-1.542-.029c-.706 0-1.21.01-1.51.029l-.045-.045v-.332l.048-.047c.341-.02.536-.035.584-.05a.216.216 0 00.17-.18c.04-.235.063-.74.063-1.519v-3.61l-3.087 5.783a25.6 25.6 0 00-.949-.02c-.185 0-.61.007-1.28.02l-.048-.045v-.332l.048-.047c.335-.02.53-.035.578-.05a.216.216 0 00.17-.18c.04-.235.063-.74.063-1.519v-2.586c0-.778-.022-1.28-.064-1.518-.016-.095-.073-.155-.169-.18a5.694 5.694 0 00-.578-.047l-.048-.048v-.332l.045-.044a40.957 40.957 0 003.046 0l.044.044v.332l-.05.048c-.336.019-.53.034-.578.047a.216.216 0 00-.17.18c-.041.234-.063.74-.063 1.518v3.684l3.087-5.856c.431.019.725.028.878.028.112 0 .562-.01 1.354-.028l.048.044v.332l-.055.047a5.77 5.77 0 00-.578.048.216.216 0 00-.169.18c-.041.234-.064.74-.064 1.518v2.586c0 .778.023 1.28.064 1.518.016.095.074.155.17.18.044.013.239.029.584.05l.048.048v.345h.003zm-45.332 6.76c-.045.303-.07.831-.07 1.584l-.054.047h-.313l-.048-.047a2.656 2.656 0 01-.016-.196 13.595 13.595 0 00-.026-.405c-.025-.199-.073-.322-.137-.373-.099-.073-.415-.107-.955-.107h-1.465v4.23c0 .778.022 1.28.064 1.518.016.095.073.155.169.18.048.013.243.029.578.048l.05.047.004.332-.045.044a52.845 52.845 0 00-1.526-.029c-.325 0-.836.01-1.526.03l-.045-.045v-.332l.048-.047c.335-.02.53-.035.578-.048a.216.216 0 00.17-.18c.04-.234.063-.74.063-1.518v-2.586c0-.778-.022-1.28-.064-1.515-.016-.095-.073-.155-.169-.18a5.705 5.705 0 00-.578-.047l-.048-.048v-.332l.048-.044 1.2.028c2.124 0 3.48-.019 4.065-.053l.048.044zm8.407 3.26c0 1.205-.355 2.147-1.063 2.833-.69.667-1.629.999-2.82.999-1.127 0-2.011-.313-2.653-.942-.642-.626-.964-1.502-.964-2.618 0-1.569.603-2.656 1.813-3.257.55-.275 1.226-.411 2.031-.411 1.15 0 2.044.297 2.682.895.648.604.974 1.438.974 2.5zm-1.523.256c0-.945-.192-1.698-.575-2.251-.383-.557-.945-.835-1.686-.835-.977 0-1.625.436-1.944 1.306a4.286 4.286 0 00-.246 1.502c0 1.008.188 1.805.562 2.387.39.604.97.904 1.743.904.939 0 1.568-.458 1.89-1.375.173-.484.256-1.031.256-1.638zm8.148-2.011c0 .67-.23 1.195-.693 1.571a2.424 2.424 0 01-1.567.566c-.198 0-.396-.022-.597-.07a1.897 1.897 0 00-.173-.35l.102-.108c.138.045.265.07.38.07.332 0 .6-.117.802-.351.2-.234.3-.56.3-.98 0-.91-.412-1.366-1.24-1.366a5.34 5.34 0 00-.593.06c-.029.079-.045.61-.045 1.6v2.586c0 .778.023 1.28.064 1.518.016.095.074.155.17.18.028.006.255.022.676.048l.055.053v.323l-.048.047c-.45-.019-.99-.028-1.62-.028-.708 0-1.216.01-1.522.028l-.048-.044v-.329l.054-.054c.332-.019.524-.034.572-.047a.216.216 0 00.169-.18c.042-.234.064-.74.064-1.518v-2.586c0-.778-.022-1.28-.064-1.515-.016-.095-.073-.155-.17-.18a5.694 5.694 0 00-.577-.047l-.048-.054v-.323l.054-.047c.323.019.818.028 1.488.028.278 0 .674-.006 1.194-.016.52-.01.82-.015.9-.015.904 0 1.489.227 1.76.68.13.233.201.518.201.85zm8.461 1.755c0 1.205-.354 2.147-1.063 2.833-.69.667-1.629.999-2.82.999-1.127 0-2.01-.313-2.653-.942-.641-.626-.964-1.502-.964-2.618 0-1.569.604-2.656 1.814-3.257.549-.275 1.226-.411 2.03-.411 1.15 0 2.044.297 2.682.895.648.604.974 1.438.974 2.5zm-1.52.256c0-.945-.191-1.698-.574-2.251-.384-.557-.946-.835-1.686-.835-.977 0-1.625.436-1.945 1.306a4.288 4.288 0 00-.246 1.502c0 1.008.189 1.805.562 2.387.39.604.971.904 1.744.904.938 0 1.567-.458 1.89-1.375.17-.484.255-1.031.255-1.638zm9.924 2.953a51.83 51.83 0 00-.48 2.378l-.047.035h-.31l-.051-.035-.029-.977c-.012-.45-.067-.724-.163-.816a.431.431 0 00-.2-.114c-.11-.022-.393-.038-.856-.047l-.741-.016-2.928.016c-.402.003-.629.133-.683.386-.026.13-.051.654-.074 1.571l-.05.035h-.31l-.048-.035-.18-.958c-.034-.2-.079-.408-.127-.63l-.172-.787.038-.142c.278.022.479.035.607.035.044 0 .118-.006.214-.016.137-.193.293-.424.469-.696l3.106-4.812a.717.717 0 00.09-.17c0-.096-.44-.19-1.319-.285l-.05-.044v-.339l.044-.028c.31.019.884.028 1.73.028.869 0 1.412-.01 1.632-.028l.064.038a124.451 124.451 0 00-.045 2.156v2.103c0 .616.016 1.315.045 2.093l.137.006a6.09 6.09 0 00.658-.044l.029.14zm-2.293-1.907v-1.482l-.019-2.397-.118-.006c-.118.186-.294.464-.524.84l-2.8 4.857h3.439c.016-.594.022-1.198.022-1.812zm10.489 2.293l-.045.047a80.288 80.288 0 00-1.325-.028c-.607 0-1.169.01-1.69.028l-.044-.047v-.307l.051-.054.431-.025c.182-.01.272-.073.272-.19 0-.07-.045-.221-.138-.458l-.399-1.034c-.453-.006-.92-.01-1.392-.01-.255 0-.638.004-1.146.01l-.217.598c-.166.452-.246.736-.246.85 0 .123.076.196.233.221.086.013.252.026.504.038l.048.048v.313l-.048.047a50.983 50.983 0 00-1.175-.028c-.134 0-.469.01-1.002.028l-.051-.044v-.32l.054-.047c.338-.019.546-.085.626-.199.077-.114.367-.794.872-2.04l1.29-3.193c.095-.25.239-.62.434-1.12h.702l2.618 6.1c.102.23.195.36.278.392.109.038.265.06.47.06l.044.054v.31h-.01zm-3.133-2.63l-1.056-2.565-1.013 2.564c.272.01.62.013 1.054.013a23.3 23.3 0 001.015-.013zm16.159 2.63l-.047.047a29.181 29.181 0 00-1.523-.028c-.706 0-1.214.01-1.52.028l-.045-.044v-.332l.051-.047c.335-.02.53-.035.578-.048a.216.216 0 00.169-.18c.042-.234.064-.74.064-1.518v-3.307l-1.101 2.235a64.41 64.41 0 00-.642 1.37l-.904 1.957h-.332a39.845 39.845 0 00-.696-1.53l-.693-1.455-1.293-2.666v3.396c0 .778.023 1.28.064 1.518a.212.212 0 00.169.18c.051.013.243.029.578.047l.048.048v.332l-.048.044a21.335 21.335 0 00-2.197 0l-.047-.044v-.332l.047-.047c.336-.02.53-.035.578-.048a.216.216 0 00.17-.18c.041-.234.064-.74.064-1.518v-2.586c0-.778-.023-1.28-.064-1.515-.016-.095-.074-.155-.17-.18a5.755 5.755 0 00-.578-.047l-.047-.048v-.332l.047-.044a24.239 24.239 0 002.35 0c.109.25.265.597.463 1.047l.317.673 1.57 3.254.757-1.518 1.181-2.498c.138-.297.275-.617.406-.958.37.019.623.028.75.028.645 0 1.14-.01 1.482-.028l.048.044v.339l-.048.044c-.336.019-.53.035-.578.047a.216.216 0 00-.169.18c-.042.234-.064.74-.064 1.515v2.586c0 .778.022 1.28.064 1.518.016.095.073.155.169.18.048.013.242.029.578.048l.048.047v.326h-.004zm8.56-3.595c0 1.205-.354 2.147-1.063 2.833-.69.667-1.628.999-2.819.999-1.127 0-2.012-.313-2.653-.942-.642-.626-.965-1.502-.965-2.618 0-1.569.604-2.656 1.814-3.257.549-.275 1.226-.411 2.031-.411 1.149 0 2.043.297 2.682.895.651.604.973 1.438.973 2.5zm-1.519.256c0-.945-.192-1.698-.575-2.251-.383-.557-.945-.835-1.686-.835-.977 0-1.625.436-1.944 1.306a4.288 4.288 0 00-.246 1.502c0 1.008.188 1.805.562 2.387.389.604.97.904 1.743.904.939 0 1.568-.458 1.89-1.375a4.95 4.95 0 00.256-1.638zm9.217 2.504l-.227.5c-.696.38-1.471.566-2.33.566-1.718 0-2.896-.614-3.528-1.84a3.945 3.945 0 01-.441-1.844c0-1.069.358-1.922 1.076-2.558.734-.654 1.737-.983 3.008-.983.807 0 1.596.145 2.366.436l.063.073a8.025 8.025 0 00-.207 1.58l-.045.048h-.29l-.048-.054a6.741 6.741 0 00-.055-.822c-.411-.461-1.005-.689-1.781-.689-.802 0-1.427.25-1.881.753-.453.502-.68 1.182-.68 2.045 0 1.164.406 2.059 1.217 2.682.431.332 1.009.5 1.733.5.658 0 1.303-.168 1.932-.504l.118.111zm8.161.832l-.054.06a38.56 38.56 0 00-.859-.035c-.16 0-.306.003-.441.01a9.597 9.597 0 01-.37.012.436.436 0 01-.278-.088c-.185-.14-.421-.37-.705-.69l-2.302-2.548v1.16c0 .778.022 1.28.063 1.518.016.095.074.155.17.18.048.013.242.029.578.048l.051.047v.329l-.045.047a29.146 29.146 0 00-1.52-.028c-.709 0-1.216.01-1.523.028l-.048-.044v-.332l.048-.047c.335-.02.53-.035.578-.048a.215.215 0 00.169-.18c.042-.234.064-.74.064-1.518v-2.586c0-.778-.022-1.28-.064-1.515-.016-.095-.073-.155-.169-.18a5.718 5.718 0 00-.578-.047l-.048-.048v-.332l.048-.044c.316.019.824.028 1.523.028.715 0 1.223-.01 1.52-.028l.045.044v.332l-.051.048c-.336.019-.53.034-.578.047a.218.218 0 00-.17.18c-.041.234-.063.74-.063 1.515v1.214c.159-.168.514-.525 1.056-1.072.288-.29.489-.5.607-.632.323-.354.54-.604.648-.743.179-.228.268-.39.268-.484 0-.038-.016-.066-.044-.082l-.055-.045v-.278l.061-.047c.361.019.703.028 1.019.028.217 0 .539-.01.967-.028l.054.047v.329l-.051.044c-.354.013-.616.057-.785.133-.137.063-.355.218-.652.471a31.32 31.32 0 00-1.273 1.16c-.195.19-.454.437-.78.744l2.826 2.905c.39.402.757.633 1.102.696l.044.048v.297h-.003zM139 45.768c0 .819-.399 1.454-1.2 1.903-.396.222-.904.332-1.527.332-.198 0-.36 0-.488-.006l-1.182-.025c-.421 0-.747.01-.977.028l-.047-.047v-.136l.025-.06c.243-.152.377-.25.396-.288.029-.06.048-.275.054-.651l.016-1.094v-2.48c0-.777-.022-1.28-.064-1.514-.016-.095-.073-.155-.169-.18a5.734 5.734 0 00-.578-.047l-.048-.048v-.332l.048-.044c.294.019.799.028 1.511.028.453 0 .865-.01 1.229-.025.29-.013.536-.019.734-.019.92 0 1.523.209 1.807.62.15.218.227.471.227.752 0 .462-.182.85-.549 1.16a1.974 1.974 0 01-.543.33 5.531 5.531 0 01-.712.211c1.36.051 2.037.598 2.037 1.632zm-1.724-3.096c0-.72-.38-1.08-1.137-1.08-.249 0-.463.012-.638.037a25 25 0 00-.019.949v1.35c.076.006.226.01.453.01.597 0 .986-.19 1.175-.567a1.51 1.51 0 00.166-.699zm.214 3.248c0-.977-.517-1.467-1.555-1.467-.131 0-.281.006-.45.012v2.264c0 .244.006.484.019.718.134.022.326.035.568.035.46 0 .818-.146 1.067-.43.233-.272.351-.652.351-1.132zm8.547-.048c0 .718-.29 1.268-.875 1.648-.498.328-1.13.493-1.896.493-.153 0-.457-.01-.904-.025-.271-.01-.498-.016-.68-.016-.127 0-.626.01-1.488.028l-.048-.035v-.341l.055-.047c.293-.016.469-.032.53-.048a.216.216 0 00.169-.18c.041-.234.064-.74.064-1.518v-2.586c0-.778-.023-1.28-.064-1.515-.016-.095-.073-.155-.169-.18-.055-.016-.233-.032-.533-.047l-.048-.048v-.332l.048-.044c.284.019.769.028 1.462.028.357 0 .868-.01 1.532-.028l.048.044v.332l-.048.048c-.335.019-.53.034-.577.047a.217.217 0 00-.17.18c-.041.234-.064.74-.064 1.515v.787c.901 0 1.546.035 1.935.104 1.143.2 1.721.778 1.721 1.736zm-1.494.092c0-.465-.137-.825-.415-1.075-.246-.221-.568-.342-.967-.357a22.75 22.75 0 00-.786-.01v2.931c.153.022.342.035.562.035.377 0 .648-.028.821-.088.245-.089.443-.266.593-.529.128-.233.192-.537.192-.907zM149 47.953l-.044.047a29.413 29.413 0 00-1.527-.028c-.686 0-1.191.01-1.519.028l-.045-.047v-.329l.048-.047c.335-.02.53-.035.578-.048a.217.217 0 00.169-.18c.041-.234.064-.74.064-1.518v-2.586c0-.778-.023-1.28-.064-1.515a.212.212 0 00-.169-.18 5.667 5.667 0 00-.578-.047l-.048-.048v-.332l.048-.044c.316.019.824.028 1.523.028.696 0 1.2-.01 1.516-.028l.051.044v.332l-.051.048a5.6 5.6 0 00-.578.047.217.217 0 00-.169.18c-.041.234-.064.74-.064 1.515v2.586c0 .778.023 1.28.064 1.518a.212.212 0 00.169.18c.048.013.243.029.578.047l.051.048v.329H149zM25.53 22.089l-.109-.01.077.05.032-.04zm-7.49-1.448l-.173.066-.156.104.22-.053.191-.095.205-.076.271-.073.243-.123.175-.041.18-.016.204-.073.21-.047.227-.048-.166.086.067.07-.128.126.166.17.18-.113.22-.05.185-.13.21-.048.17-.136-.246-.013-.214.073.096.041-.157.048-.073-.111.06-.057-.169-.013.192-.063.21.013.186-.067-.144.02-.16-.02.112-.038-.223.067-.233.047.022-.025-.182.019-.147.003-.013.003-.182.073.163-.07h.042l.198-.06.217-.01.166-.034-.195-.01h.227l.15-.053.185-.025.191-.032-.05.019.191.006.192-.012.194.012.086.007.032-.004.205-.025.188.029.07-.007.195-.012.192.028.188-.019-.217-.025h-.051l-.029.003-.019-.003-.125-.003-.21-.023.175-.003.16.026h.048l.153-.013.179.025.176.016.185.032.185.016.182.047.182.032.182.04.201.054.204.048.189.098.175.107.176.057.156.092.182.047.17.07.166.082.185-.006.191.057.186.079-.218-.165.18.073.159.101.172.089-.073-.098-.176-.073-.166-.095-.178-.063-.17-.088-.182-.057-.166-.098-.175-.073-.18-.067-.188-.04-.172-.083-.182-.054-.192-.025-.181-.063-.195-.022-.185-.054h-.195l-.189-.035-.185-.047-.191-.013-.195-.006-.195-.006-.195-.02-.194.016-.192.022-.195-.018-.195-.01-.194.013-.189.05-.194-.006-.189.047-.194-.003-.189.054-.188.038-.192.025-.17.029c-.012.003-.021.006-.031.006l-.17.07-.181.063-.173.044.17-.022.169-.05-.189.1.09-.003-.188.057-.186.076-.185.06-.195.016.16-.108-.153.067-.18.054-.175.07-.172.072-.16.101-.169.101.198-.085.207-.044zm1.676-.497l.121-.025-.121.06v-.035zm1.823-.262l-.106-.01-.181.02.213.006h.205l.2-.026-.015-.003-.121.01-.195.003zm-1.095.076l.14.006.166-.006h-.067l.157-.003.143-.048-.23.02.112-.039-.23.041-.236.029h.045l.01-.003-.01.003zm9.795 13.299l.08-.197-.14.155-.118.162-.115.16-.106.172-.073.192-.096.045-.102.13-.109.142-.073.158-.07.164-.182.13-.096.183-.115.155-.15.123-.134.143-.144.13-.156.12-.16.107-.147.127-.124.148-.083.174v.076l-.09.19-.128.17-.16.155.1-.06.147-.11.07-.064.15-.12.041-.028a9.464 9.464 0 002.309-2.865l.022-.076.013-.019-.093.12.032-.192zm-10.942 2.842l-.178-.003-.106.161-.13.127h-.22l-.167.211.102.212-.124-.016.019.193.124.127.163.095.189.04.185-.03.099-.102-.074-.108.106-.11.147-.086.01-.18.04-.174-.124-.167-.06-.19zm11.293-3.52l-.092.172-.08.177-.06.18-.042.174.054-.095.016-.022c.051-.108.102-.215.147-.326l.026-.17.057-.137.064-.132-.026-.007-.064.187zm-2.898 1.926l.092-.16.105-.153-.095-.193-.192-.104-.144-.148.09-.095.124-.086-.054-.19-.093-.173-.12-.146-.151-.047-.144-.085-.035-.225.039-.221.156-.152.176.107.194.08.201.056.163-.139.118-.186.128-.171.06-.2-.018-.164-.045-.164-.041-.161-.195-.13-.211-.11.022-.19.067-.174.07-.184.278.06.131-.139.1-.167.127-.146.137-.132.048-.203.118-.174.061-.199.067-.196-.01-.202.013-.203.01-.202.01-.203-.125-.132-.14-.117-.138-.12-.057-.174-.058-.171.07-.168-.2-.072-.221.025.077-.225.16-.06.136-.085.135.073.127.01.118.198.15.165.18-.187-.055-.18-.102-.158-.102-.155-.125-.158.022-.123v-.2l-.098-.177.003-.19.111-.066-.006-.202-.041-.206-.02-.183-.095-.23-.058-.175-.09-.158-.095-.152-.073-.142.137.089.108.145.103.146.153.079-.045-.155-.124-.111-.09-.145-.099-.15-.137-.11-.121-.136-.15-.07.006.178-.201-.032-.067.146-.122-.155-.12-.165-.049-.196-.044-.196.038-.202-.051-.187.012-.193.096-.044-.108-.164-.09-.162.013-.177-.128-.208.144.12.1.164.114.152.125.142.111.155.144.111.233.127.243.1-.112-.17-.14-.155-.208-.187-.128-.136-.137-.13-.128-.132-.163-.12-.118-.161-.115-.168-.112-.168-.143-.142-.118-.164-.144-.142-.191-.076-.176-.092-.134-.133-.147-.114-.131-.104-.032.19.054.183.09.17.156.14-.09.202-.101.076.047.105-.105.028.048.082-.13.032-.125.12.044.095-.092.174-.029.205-.074.184-.21-.023-.208.035-.16.114-.165.101-.128-.019-.09.149-.13.082-.051-.152-.039-.164-.16-.025-.165-.007-.17.035-.13.244-.227.06-.243.025-.105.205-.208.111-.05.155-.106.12-.061-.013.125.13-.18.054-.197.032-.189-.054-.025.136-.02.133-.124-.193-.099-.225-.143.183-.048.219-.067.202h-.176l-.17-.07-.168-.009-.17.06-.182.01-.178.034-.22.013h-.224l-.217.054-.182-.14-.131.24-.176-.002-.17.031-.168.08-.18.04-.105-.135-.035-.177.1-.08.178.12.198.045.21-.02-.015-.195-.134-.108-.115-.139-.14-.114-.163-.085-.109-.221-.176-.06-.188-.023-.166.02-.153.07h-.163l-.25.088-.197.003-.179.091-.192.08-.181-.004-.182-.025-.15.142-.154.136-.076.184.166.221-.039.168-.048.167-.003.165.16.123.204-.082.185-.105.157-.139.067-.01.01-.157.067-.18.166-.111.178-.082.189-.064.178-.006-.118.114-.162.076-.154.072-.08.247.061.161-.073.168-.138.123-.169-.031-.128.123-.099.139-.217-.032-.213-.031-.138-.089-.121-.11-.105-.111.156-.07.025-.186.08-.18-.156.126-.134.133-.16.136-.102-.08-.15.03-.134-.06-.179.075-.163.101-.191.02-.112-.077-.15-.022-.074.177-.041.18-.093.159-.137.113-.198-.13-.137-.208-.163.158-.163.136-.086.142-.045.165-.06.152.054.205.035.218.15.06.153.003.163-.091.134-.146.16-.022.24-.126.133.091.157.054.14.063-.003.18.026.19.054.184.099.174.08.18-.067.168-.016.19.134-.121.127-.155.03.082.021-.212-.038-.136-.05-.145-.1-.212.067-.25.14.14.065.205.099.209.057.234-.156.095.054.177.05.174-.025.218-.012.24.137.076.048-.041.118.076-.042-.2.087.035.003-.199.006-.196.157-.088.166.132.21.035-.153.12-.035.184.022.19-.01.189.164.073.162.076.163.076.16.085.188.003-.022.209-.051.196-.176.123-.115.12-.137-.066-.278-.06-.223-.022-.147-.114-.144-.117-.14-.155-.166-.127-.16-.126-.163.013-.179.205-.12-.145-.106-.155-.093-.168-.029-.196-.169-.101-.08-.183.061-.2.029-.205-.023-.196-.153-.11-.169-.102-.144-.133-.15-.126-.191-.05-.16-.02-.025-.269-.218.114-.233-.022-.121.174-.16.145-.21.023-.173.154-.09.212-.073.215-.067.18-.07.18-.054.184-.029.19-.025.186-.016.187.012.187.029.186-.01.187-.025.246.022.203-.01.202.064.193.039.196.044.2.093.18.144.145.099.196.147.161.207.07.093.136.076.151.093.143.144.148.127.168.074.177-.026.212-.028.215.067.208.111.187.061.187.099.17.051.19.096.17.105.162.122.149.025.164.003.158-.064.095.068.19.003.208.137.136.144.12.111.149.109.149.112.148.115.146.108.151.134.13.131.133.003.01c.32.271.658.518 1.012.746l.077.031.15.06.157.057.166.038.182-.136-.051-.199.118-.136-.051-.127-.032-.142.13-.082.176-.038.185-.047.112-.155-.083-.184-.054-.221-.058-.196-.102-.177-.044-.2-.08-.186.147-.158.178-.117.201-.073.16-.136.16-.148.201-.092.201-.063.172-.12.061-.196.109-.174.108-.174.15-.117-.01-.184-.124-.075-.13-.067-.211.003-.211.029-.21.016-.215-.007-.143-.158.028-.142.208.035.195-.05.198-.032.194-.038.201-.007.195-.053.179-.076.17-.114.283.038.166-.057.173-.054.102-.161.093-.17.13-.143.11-.149-.062-.155-.047-.167-.17-.158-.105-.187.188.022.163.089.179.05.153.082.17-.06.185-.028.185-.016.182.022.029.073.134.11.166.064.121.13.166.17.172.152.16-.041.086.126.106.114-.026.184.003.18-.012.19.114.11.131.095-.019.212.096.13.093.13.092.132.134.066.08.12.131-.135.157-.111.082-.17.112-.156.023-.19-.01-.183.003-.186.105-.171.15-.136.173-.104.195-.07.137-.262.204-.117.119-.177.181-.108.183-.079.255.044.153.12.125.149.086.174.118.155.208.006.213.041.122.152.013.196-.026.19-.025.193.041.19.073.18.163.091.045.209.073.193-.14-.092-.176-.025-.172-.025-.182-.007-.054.101.182.149.23.076-.064.148.185.098.035.155.064.14.172.063.182.047.186.003zm-11.05-.158l-.151-.212.125.054.012-.06.109.101-.096.117zm1.219-1.916l-.115-.268-.131-.136-.105-.159-.096-.164.028-.19.119-.17-.096-.162-.17-.066-.044-.174-.054-.168-.07-.164-.017-.177-.047-.174.156.029.153.1.086.162-.003.202.029.2.057.192.083.171.084.17.114.153.112.158.09.23.01.18.012.181.054.177-.24-.133zm.667-4.07l-.252.004-.17-.079-.185-.044-.143-.117-.18-.05-.197-.032-.198-.026-.198-.01.13-.129.08-.164.065-.171.108-.145.147-.016.121.031.074.133.054.142-.099.06.173.165.249-.092-.227-.12.14-.117.182-.025.166-.029-.031.149-.141.12.115.133.121.126.106.143-.01.16zm1.028-.28l.06-.146.202-.076.179.048.134-.038-.16.142-.175.092-.01.145.01.145.073.162.058.17.038.178.044.177-.006.177-.156.06-.198-.041-.083-.193-.067-.206.14-.104-.073-.183-.064-.18-.006-.19.06-.14zm.501 3.237l-.172-.028-.17-.063-.111-.143-.102-.148-.112-.146-.08-.164-.134-.13.122-.044.143-.032.06.158.068.155.115.124.102.139.21.016.192.07-.13.236zm10.256 1.98l.003-.016-.026.044.023-.028zm-10.048-13.33h.003-.003zm4.936 2.39l.243.079-.003-.203-.198.02-.042.104zm-10.035 4.594l-.112.047-.006.155-.007.158.115-.177.01-.183zm1.14 1.815l.102.019-.08-.146-.022.127zm4.007-8.813h-.02l-.025.01.045-.01zm-4.997 7.836l.048.158.15-.136-.038-.174-.157.028-.041-.123-.06.117.098.13zm-.016-1.063l-.048.114.058-.022-.01-.092zm14.796 5.92l.105-.115.051-.145-.172.174.016.085zm-.53-5.256l-.134-.012-.032.196.166.053v-.237zm-.253 3.478l.198.105.233-.124-.089-.18-.102-.187.051-.145-.038-.145-.16.044-.038.212-.048.212-.007.208zm0 .813l.09-.168-.163.092-.051.202.124-.126zm.384-.522l-.07.025-.004.13.08.07-.006-.225zm-.163-4.945l.032.183-.02.184-.003.186-.06.177-.045.18-.032.194.195-.029.124-.126.026-.18-.029-.178.02-.174.015-.196-.038-.186-.1-.165-.066-.183-.093-.19-.06.073.073.212.06.218zm-1.233 8.11l-.223.054-.22.01-.128.157.16-.003.165-.006.16-.038.208-.041.188-.092.144-.167-.281-.022-.173.148zm-.124-3.481l-.09.158.182.085.042-.136.013-.139-.147.032zm.977-1.511l-.032.183.041.187.067-.023.039-.202-.026-.193-.09.048zm-4.87 4.132l-.172.035-.095.14.022.167.086.148-.02.067.221-.038.051-.177-.016-.184-.076-.158zm4.854-7.961l.083.158.07-.13.01-.161.022-.168-.147-.079-.16.022.08.174.042.184zm1.75 5.9l-.112.183-.112.18-.067.215-.131-.11-.093.139-.054.167.07.174.211-.136.026.105.044.015.093-.19.073-.198.07-.127c.02-.07.042-.14.058-.209l.013-.06.032-.215-.122.067zm-1.073.243l.16.06.047-.193.01-.193-.035-.19-.03-.006-.101.193-.074.209-.127.183.15-.063zm-.406 2.2l.06-.135-.127.088-.096.133-.067.149.112-.12.118-.114zm-5.76-10.73l.192-.051-.262-.089.07.14zm5.316 10.443l.093-.161.054-.18.083-.165.08-.17.01-.19-.051-.177.099-.124.073-.142-.134-.095h-.166l-.058.19-.095.17-.096.175-.16.211-.102.146-.147.104-.128.12-.108.14-.058.164.106.161.191.054.192-.029.198-.003.124-.199zm-9.431-10.77l-.007-.173-.175-.057-.157.076-.111.13-.026.173.24.003.223-.085.06.07.272-.073-.166-.13-.153.067zm-2.475-1.546l-.15.108-.163.085-.134.13-.198.136-.108.215.172-.066.137-.092.16-.01-.038.089.188.066.1.162.038.174.178-.013.176-.035.134-.117.176-.006.163-.057.22-.082.156-.035.14-.032.026-.038.189.032.194.019.17-.02.022-.138.022-.127.192-.11v-.215l.185-.212-.073-.038.048-.041.102-.225-.144-.031.099-.092-.01-.145.115-.035-.178-.02-.18.026-.162.073-.16.07-.044.069-.173.07-.166.075-.179.041-.166.08-.217.085.038-.054-.175.07-.15.095-.054-.064-.182.032-.166.085-.17.063zm-.587 1.376l-.102.149.006.17h.16l.156.016.093-.234-.17-.218-.143.117zm5.785-2.722l-.214.01-.21.027.214.01.21-.047zm-.884 3.993l.179-.054.153-.11.192.012.015-.098-.191-.06-.201.035-.16.098-.198.063-.179.108-.102.177-.076.19.134.066.127.088.07-.082-.047-.177.137-.133.147-.123zm1.97-1.037l-.163.041.013.218.185-.003.175-.003-.082-.136-.128-.117zm6.775 9.264v-.155l-.041.155.006.146.035-.146zm-13.585-10.76l.185-.095.169-.12.195-.076.188-.091.093-.133-.182.101-.058.022c-.32.18-.626.38-.92.595l.16-.076.17-.127zm13.195 11.146l-.213.101-.08.174-.106.158-.054.184-.032.183.058.164.169-.07.118-.16.048-.193-.013-.193-.086-.038.124-.149.122-.17.102-.19-.157.199zM15.343 24.57l.166-.063.134-.12.044-.171-.022-.003-.179.056-.16.095-.159.095.016.136.16-.025zm14.22 9.226l.135-.196.102-.202-.125.199-.111.2zM15.67 24.618l-.175.098-.157.127-.146.133.015.174.23.003.227-.032.105-.187.045-.205.083-.18.153-.136.106-.174.057-.203-.153.064-.14.066.01.168-.138.136-.122.148zm-.003-2.64l-.035.029-.045.04-.172.168.176-.161.076-.076zm-1.622 23.224s-7.018-3.854-6.472-9.91c0 0-.6 1.72.374 4.004 0 0-3.413-1.268-.46-6.334 0 0 3.8 2.615 1.102 6.368 0 0 .686 1.673 3.017 3.112 2.33 1.438 3.01 2.017 3.01 2.017s.122.635-.57.743z" fill="#fff"/><path d="M8.675 40.997s-2.835 3.462-7.063.607c0 0 3.28-3.124 6.616-1.37 0 0-2.012.039-3.052.671 0-.003 1.794-.462 3.499.092zm1.725-.143s-1.064-2.56 1.666-3.566c0 .003.393 3.351-1.667 3.566z" fill="#fff"/><path d="M21.96 18.054c-.546-.793-4.217-8.025-21.96-6.785V8.752v33.023s.405 7.104 7.1 7.104c6.696 0 11.67-.408 14.812 3.124 0 0 3.248-3.07 7.306-3.016 4.058.053 7.608 0 7.608 0s7.101-.424 7.101-7.74V8.748v2.517c-17.746-1.237-21.42 5.995-21.967 6.788z" fill="#B7B7B7"/><path opacity=".5" d="M43.92 19.672V.091C26.179-1.145 22.507 10.475 21.96 11.268 21.414 10.475 17.743-1.145 0 .091v19.578" fill="#A4ADB2"/><path d="M43.92 20.015V3.025C26.179 1.79 22.507 13.455 21.96 14.246 21.414 13.453 17.743 1.79 0 3.024v16.99" fill="#fff"/><path d="M43.92 20.619V6.156C26.179 4.92 22.507 15.607 21.96 16.397c-.546-.793-4.217-11.48-21.96-10.24v14.465" fill="#404040"/><path d="M43.92 19.673V9.384c-17.742-1.236-21.414 7.08-21.96 7.873-.546-.793-4.217-9.109-21.96-7.873v10.29" fill="#fff"/><path d="M43.92 23.139v-10.83c-17.742-1.236-21.414 4.952-21.96 5.745-.546-.793-4.217-6.981-21.96-5.745v10.826" fill="#B7B7B7"/><path d="M25.96 22.354l-.108-.01.077.051.032-.04zm-7.49-1.448l-.175.067-.157.104.217-.054.192-.095.204-.076.272-.072.246-.124.175-.04.182-.017.205-.072.21-.048.227-.047-.166.085.067.07-.128.126.166.171.18-.114.22-.05.185-.13.21-.047.17-.136-.246-.013-.214.073.096.04-.157.048-.073-.11.06-.057-.169-.013.192-.063.21.012.186-.066-.144.019-.157-.019.112-.038-.223.067-.23.047.022-.025-.182.019-.147.003-.012.003-.195.066.163-.07h.041l.198-.06.217-.009.166-.035-.195-.01h.227l.15-.053.186-.025.191-.032-.051.02.192.006.191-.013.195.013.086.006.032-.003.204-.026.189.029.07-.006.195-.013.191.028.189-.019-.218-.025h-.05l-.03.003-.018-.003-.122-.003-.21-.022.175-.003.16.025h.048l.153-.013.179.026.175.015.185.032.186.016.182.047.182.032.182.041.204.054.204.047.189.098.175.108.176.057.16.091.178.048.17.07.166.082.185-.007.191.057.186.08-.22-.165.178.072.16.102.172.088-.073-.098-.176-.073-.166-.094-.179-.064-.169-.088-.182-.057-.166-.098-.176-.073-.178-.066-.189-.041-.172-.083-.182-.053-.192-.026-.182-.063-.191-.022-.186-.054h-.194l-.189-.035-.185-.047-.191-.013-.195-.006-.195-.006-.191-.02-.195.017-.192.022-.195-.02-.194-.009-.195.013-.189.05-.194-.006-.189.048-.194-.004-.189.054-.188.038-.192.025-.169.029a.113.113 0 01-.032.006l-.17.07-.181.063-.176.044.17-.022.169-.05-.189.1.09-.002-.192.063-.185.076-.185.06-.195.016.163-.108-.153.066-.18.054-.175.07-.172.073-.16.1-.169.102.198-.085.207-.045zm1.677-.496l.121-.026-.121.06v-.034zm1.823-.263l-.106-.01-.181.02.213.006h.205l.2-.025-.015-.003-.121.01-.195.002zm-1.095.076l.14.007.163-.007h-.067l.156-.003.144-.047-.227.019.112-.038-.227.04-.236.03h.042l.01-.004-.01.003zm9.795 13.3l.083-.197-.14.155-.118.161-.115.161-.106.171-.076.193-.096.044-.102.13-.109.142-.073.158-.07.165-.182.13-.1.183-.114.155-.15.123-.135.142-.143.13-.154.12-.16.108-.146.126-.124.149-.084.174v.079l-.089.19-.128.17-.16.155.1-.06.147-.11.07-.064.15-.12.041-.029a9.464 9.464 0 002.309-2.864l.022-.076.013-.019-.09.12.03-.196zM19.728 36.36h-.178l-.106.162-.13.126h-.22l-.167.212.102.212-.124-.016.019.193.124.126.163.095.189.041.185-.031.099-.102-.074-.107.106-.11.146-.086.01-.18.042-.174-.125-.168-.06-.193zm11.293-3.516l-.092.171-.08.177-.064.18-.041.174.054-.094.016-.023c.051-.107.099-.215.147-.325l.025-.171.058-.136.064-.133-.026-.006-.06.186zm-2.902 1.923l.093-.161.105-.152-.096-.193-.191-.104-.138-.146.09-.095.124-.085-.054-.19-.096-.174-.121-.145-.15-.048-.144-.085-.035-.224.038-.222.157-.151.176.107.194.079.201.057.163-.14.118-.186.128-.17.06-.2-.018-.164-.045-.165-.042-.16-.194-.13-.211-.111.022-.19.067-.174.07-.183.282.06.13-.14.1-.167.124-.145.137-.133.048-.202.118-.174.061-.2.067-.195-.01-.203.013-.202.01-.203.01-.202-.125-.133-.14-.117-.141-.12-.058-.174-.057-.17.07-.168-.201-.073-.22.026.076-.225.16-.06.137-.085.134.072.128.013.118.2.15.164.18-.187-.058-.18-.103-.158-.105-.155-.124-.158.022-.124v-.199l-.1-.177.004-.19.112-.066-.006-.202-.042-.206-.02-.183-.095-.231-.057-.174-.09-.158-.092-.152-.074-.142.137.088.109.146.102.145.153.08-.044-.156-.125-.11-.09-.146-.098-.148-.138-.111-.12-.136-.15-.07.006.178-.202-.032-.067.145-.121-.154-.121-.165-.048-.196-.045-.196.038-.202-.05-.187.012-.193.096-.044-.106-.165-.089-.16.013-.178-.128-.209.144.12.099.165.115.152.124.142.112.155.14.13.234.126.242.101-.111-.17-.141-.155-.207-.187-.131-.136-.134-.13-.128-.132-.163-.12-.118-.162-.115-.164-.112-.168-.144-.142-.118-.164-.143-.143-.192-.075-.176-.092-.134-.133-.146-.114-.131-.104-.032.19.054.183.09.17.153.14-.087.202-.105.076.048.104-.106.029.048.082-.13.032-.125.12.045.095-.093.174-.029.205-.073.183-.21-.022-.208.035-.16.114-.166.101-.128-.019-.09.149-.13.082-.051-.152-.038-.164-.16-.02-.166-.006-.17.035-.13.244-.227.06-.24.025-.105.206-.207.11-.051.155-.106.12-.06-.012.124.13-.179.053-.198.032-.188-.054-.026.136-.019.133-.124-.193-.1-.225-.143.184-.048.215-.067.202h-.175l-.17-.07-.169-.009-.17.06-.181.01-.179.034-.217.013h-.224l-.217.054-.182-.14-.13.241-.176-.003-.17.032-.169.079-.178.04-.106-.135-.035-.177.1-.08.178.12.198.045.21-.019-.015-.196-.134-.108-.115-.139-.14-.113-.164-.086-.108-.221-.176-.06-.188-.022-.166.019-.154.066h-.162l-.25.088-.197.004-.18.091-.19.08-.183-.004-.182-.025-.15.142-.153.136-.08.18.166.222-.038.167-.048.168-.003.164.16.124.204-.083.188-.104.16-.161.067-.01.01-.158.066-.18.166-.11.18-.083.188-.063.182-.006-.119.113-.166.076-.153.073-.08.247.061.16-.073.168-.138.124-.169-.032-.128.123-.099.14-.217-.032-.214-.032-.137-.088-.124-.11-.112-.108.156-.07.026-.186.08-.18-.157.126-.134.133-.16.136-.102-.08-.15.029-.134-.06-.179.076-.163.101-.191.019-.112-.076-.15-.022-.07.18-.042.18-.092.159-.138.113-.2-.13-.138-.208-.163.158-.163.136-.086.142-.045.165-.06.151.054.206.035.218.15.06.154.003.162-.091.134-.146.16-.022.24-.126.134.091.156.054.144.063-.003.18.025.19.054.184.1.174.08.18-.065.167-.019.19.134-.12.128-.155.029.082.022-.212-.038-.136-.051-.145-.1-.212.071-.25.14.14.064.205.1.209.057.234-.157.095.055.177.05.174-.025.218-.013.24.138.07.047-.042.119.076-.045-.199.086.035.003-.2.007-.195.156-.089.166.133.211.035-.153.12-.035.183.022.19-.01.19.163.072.163.076.163.076.16.085.188.004-.023.208-.05.196-.176.124-.109.12-.137-.067-.278-.06-.223-.022-.147-.114-.144-.12-.14-.155-.166-.126-.16-.127-.163.013-.179.206-.12-.146-.106-.155-.093-.167-.032-.196-.169-.102-.08-.183.06-.2.03-.205-.023-.196-.156-.11-.17-.102-.143-.132-.15-.127-.192-.05-.16-.02-.025-.268-.217.114-.233-.023-.121.174-.16.146-.21.022-.173.155-.09.212-.073.215-.067.18-.07.18-.055.184-.028.19-.026.186-.016.186.013.187.029.186-.01.187-.025.247.022.202-.01.202.064.193.038.196.045.2.093.18.143.145.1.196.146.162.208.069.092.136.077.152.093.142.143.149.128.167.073.177-.025.212-.029.215.067.209.112.186.06.187.1.17.05.19.096.171.106.161.121.149.026.164.003.159-.064.094.067.19.003.209.137.136.144.12.112.148.109.15.111.148.115.145.109.152.134.13.13.132.004.01c.32.272.658.518 1.012.746l.077.032.15.06.156.057.166.038.182-.136-.05-.2.117-.136-.05-.126-.033-.142.131-.082.176-.038.188-.048.112-.155-.083-.183-.051-.196-.058-.196-.102-.177-.044-.2-.08-.186.146-.158.18-.117.2-.073.16-.136.163-.148.201-.092.201-.063.173-.12.06-.197.109-.174.108-.173.15-.117-.01-.184-.124-.076-.134-.066-.21.003-.208.029-.21.015-.215-.006-.143-.158.029-.142.21.034.195-.05.198-.032.195-.038.2-.006.196-.054.178-.076.17-.114.284.039.166-.057.172-.054.102-.162.093-.17.13-.142.11-.15-.061-.154-.048-.168-.17-.158-.105-.186.189.022.163.088.178.051.154.082.169-.06.185-.028.185-.016.182.022.029.073.134.11.166.064.121.13.166.17.173.152.16-.041.086.126.105.114-.026.183.004.18-.013.19.115.111.13.095-.018.212.095.13.096.129.093.133.134.066.083.12.13-.136.157-.11.083-.171.112-.155.022-.19-.01-.183.004-.187.105-.17.15-.136.176-.105.195-.07.137-.262.204-.117.118-.177.183-.107.181-.08.237.035.153.12.124.15.087.173.118.155.207.006.214.041.122.152.01.196-.026.19-.026.193.042.19.073.18.163.091.045.21.073.192-.14-.092-.176-.025-.173-.025-.181-.007-.055.102.182.148.23.076-.064.149.182.098.039.155.06.139.173.063.185.048.188-.013zm-11.047-.158l-.15-.209.125.054.012-.06.112.1-.099.115zm1.22-1.913l-.115-.269-.131-.136-.105-.158-.096-.164.028-.19.118-.17-.092-.162-.17-.067-.044-.173-.054-.168-.07-.164-.02-.178-.047-.17.156.028.153.101.086.162-.003.202.029.2.057.192.087.17.083.172.114.151.112.159.09.23.01.18.012.18.054.178-.242-.136zm.667-4.07l-.252.004-.17-.08-.185-.044-.143-.117-.18-.05-.197-.032-.201-.025-.198-.01.13-.13.08-.164.064-.17.109-.146.147-.016.121.032.074.133.054.142-.1.06.177.165.248-.092-.223-.12.14-.117.183-.026.165-.028-.031.149-.14.12.114.133.121.126.106.142-.013.162zm1.028-.28l.06-.146.202-.076.179.047.134-.038-.16.142-.175.092-.01.143.006.145.074.161.057.171.038.177.045.177-.003.177-.156.06-.198-.04-.083-.194-.067-.205.14-.105-.077-.183-.063-.18-.007-.19.064-.136zm.501 3.237l-.172-.029-.172-.063-.112-.142-.102-.149-.112-.145-.08-.165-.134-.13.121-.043.144-.032.06.158.068.155.115.123.102.14.21.015.192.07-.128.237zm10.256 1.98l.003-.017-.026.045.023-.029zM20.696 20.23h.003-.003zm4.936 2.393l.243.08-.003-.203-.198.019-.042.104zm-10.035 4.594l-.112.048-.006.155-.007.158.115-.177.01-.184zm1.14 1.815l.102.02-.08-.146-.022.126zm4.007-8.812h-.02l-.025.01.045-.01zm-4.997 7.835l.048.158.15-.136-.038-.174-.16.029-.041-.123-.061.117.102.13zm-.016-1.062l-.048.114.058-.023-.01-.091zm14.796 5.919l.105-.114.051-.145-.172.174.016.085zm-.53-5.255l-.131-.013-.032.196.166.054-.003-.237zm-.253 3.478l.198.104.233-.123-.095-.18-.103-.187.052-.145-.039-.146-.16.045-.038.211-.048.212v.209zm0 .813l.09-.168-.163.092-.051.202.124-.126zm.38-.522l-.07.025-.003.13.08.07-.007-.225zm-.16-4.945l.033.183-.02.183-.003.187-.06.177-.045.18-.035.193.195-.028.124-.127.026-.18-.032-.177.019-.174.016-.196-.038-.187-.096-.164-.067-.183-.093-.19-.06.073.073.211.064.219zm-1.232 8.11l-.223.053-.22.01-.128.158.16-.003.165-.006.16-.038.208-.041.188-.092.144-.168-.281-.022-.173.149zm-.124-3.481l-.09.158.182.085.042-.136.016-.139-.15.032zm.977-1.515l-.032.183.041.187.067-.022.039-.203-.026-.192-.09.047zm-4.87 4.136l-.172.035-.099.139.023.167.086.149-.02.066.221-.038.051-.177-.016-.183-.073-.158zm4.854-7.962l.08.158.07-.13.01-.16.022-.168-.147-.08-.16.023.08.174.045.183zm1.75 5.9l-.112.184-.112.18-.067.215-.131-.11-.093.138-.05.168.07.174.21-.136.026.104.045.016.092-.19.073-.199.07-.126c.02-.07.042-.14.061-.21l.013-.06.032-.214-.128.066zm-1.073.244l.156.06.048-.193.01-.19-.036-.19-.028-.006-.106.193-.073.209-.128.183.157-.066zm-.406 2.2l.06-.136-.127.089-.096.133-.067.148.112-.12.118-.114zM24.08 23.38l.195-.05-.265-.09.07.14zm5.316 10.447l.09-.162.054-.18.083-.164.08-.171.01-.19-.052-.177.1-.123.073-.149-.134-.095h-.166l-.058.19-.099.17-.096.175-.16.212-.098.145-.147.104-.128.12-.108.14-.058.164.105.161.192.054.192-.031.198-.004.127-.19zm-9.431-10.773l-.007-.174-.175-.057-.157.076-.111.133-.026.174.24.003.22-.085.06.07.272-.074-.166-.13-.15.064zM17.49 21.51l-.15.108-.163.085-.134.13-.198.136-.108.215.172-.067.138-.091.16-.01-.04.089.19.066.098.161.039.174.178-.016.176-.034.134-.117.176-.007.162-.057.22-.082.157-.035.14-.031.026-.038.189.031.194.02.17-.02.022-.139.022-.126.192-.11.003-.216.185-.212-.073-.038.05-.04.103-.225-.147-.032.1-.092-.01-.145.114-.035-.178-.019-.18.026-.162.072-.16.07-.044.07-.173.069-.166.076-.179.04-.162.08-.218.085.039-.053-.176.07-.15.094-.054-.063-.182.031-.166.086-.176.066zm-.584 1.376l-.102.148.006.17h.16l.156.017.093-.234-.17-.218-.143.117zm5.782-2.723l-.214.01-.21.028.213.01.211-.048zm-.884 3.994l.179-.054.153-.11.191.012.016-.098-.191-.06-.198.034-.163.095-.198.064-.179.107-.102.18-.077.19.135.067.127.088.07-.082-.047-.177.137-.133.147-.123zm1.97-1.038l-.163.042.013.218.185-.003.175-.004-.083-.136-.127-.117zm6.775 9.265v-.155l-.042.155.007.145.035-.145zM16.96 21.624l.185-.095.17-.12.194-.076.189-.092.09-.132-.183.1-.057.023c-.32.18-.626.38-.92.594l.16-.076.172-.126zm13.2 11.146l-.215.1-.08.175-.105.158-.054.183-.032.183.058.165.169-.07.118-.16.048-.194-.013-.193-.09-.038.128-.148.122-.17.102-.19-.157.199zm-14.387-7.934l.165-.063.135-.12.044-.17-.022-.004-.179.057-.163.092-.16.095.017.136.163-.023zm14.22 9.227l.131-.196.103-.203-.125.2-.109.199zm-13.892-9.18l-.175.099-.153.126-.147.133.019.17.23.004.226-.032.106-.186.044-.206.083-.18.15-.136.106-.174.057-.202-.153.063-.14.067.01.167-.138.136-.125.152zm-.003-2.642c-.013.009-.022.018-.035.028l-.045.041-.172.168.176-.162.076-.075zm-1.622 23.227S7.458 41.61 8.004 35.56c0 0-.6 1.717.374 4 0 0-3.413-1.264-.46-6.33 0 0 3.8 2.615 1.102 6.368 0 0 .686 1.673 3.017 3.111 2.33 1.44 3.01 2.018 3.01 2.018s.122.632-.57.74z" fill="#fff"/><path d="M9.103 41.26s-2.835 3.461-7.063.606c0 0 3.28-3.124 6.616-1.369 0 0-2.012.038-3.053.67.004 0 1.795-.458 3.5.092zm1.727-.14s-1.063-2.561 1.667-3.567c0 0 .392 3.352-1.667 3.567zm23.93-12.67c-.255-3.13-1.529-5.817-3.783-8.034-1.169-1.15-2.532-2.01-4.11-2.703-.156.464-.472.945-.35 1.125.284.408-.042.598-.15.841-.03.067-.396.038-.582-.022-3.988-1.325-7.64-.686-10.753 2.093-3.126 2.796-4.119 6.378-3.116 10.397.692 2.77 2.391 4.9 4.898 6.364.207.12.418.238.657.374-.134.262-.24.657-.354.664-.706.025-.518.67-.923 1.068a14.98 14.98 0 005.29 1.373v1.334h1.37v-1.306c7.037-.38 12.481-6.574 11.906-13.568zm-19.386 8.066c-.013-.01-.023-.022-.036-.031a9.686 9.686 0 01-3.065-7.073c0-5.391 4.416-9.764 9.86-9.764 5.447 0 9.86 4.373 9.86 9.764 0 5.122-3.985 9.318-9.05 9.729a2.97 2.97 0 01-.194.012c-.06.007-.121.01-.179.013-.575.025-1.156.003-1.75-.073.004 0 .004-.003.007-.006a9.77 9.77 0 01-1.648-.357c-.255-.054-.546-.165-.843-.218a.516.516 0 01.036-.073 9.701 9.701 0 01-1.067-.513 3.142 3.142 0 01-.488-.29c-.518-.332-1-.706-1.444-1.12zm17.072-2.2c-3.008 6.22-10.214 7.708-14.853 5.485l.332-.701c3.441 1.318 6.765 1.106 9.9-.838 1.993-1.233 3.366-2.991 4.209-5.167 1.657-4.275.198-10.295-5.246-13.065.128-.256.252-.515.38-.774 4.971 2.223 8.285 8.843 5.278 15.06zm-6.523 10.07c-2.5-.012-5-.01-7.5-.003-1.316.003-2.325.968-2.459 2.346h12.344c-.058-1.303-1.108-2.34-2.385-2.343zm-.888-.461c-.294-.114-.581-.317-.878-.326a74.22 74.22 0 00-4.023 0c-.297.01-.59.228-.884.35.022.061.047.121.07.181h5.642c.025-.07.05-.136.073-.205z" fill="#fff"/></svg>