<svg width="93" height="48" fill="none" xmlns="http://www.w3.org/2000/svg"><path fill-rule="evenodd" clip-rule="evenodd" d="M4.12 24.025c0-12.027 19.223-21.812 42.855-21.812 23.628 0 42.856 9.785 42.856 21.812 0 12.026-19.228 21.812-42.856 21.812-23.632 0-42.855-9.786-42.855-21.812zm88.876 0C92.996 10.785 72.393.06 46.976.06 21.557.06.955 10.79.955 24.03.955 37.27 21.557 48 46.975 48c25.417-.01 46.02-10.74 46.02-23.975z" fill="#fff"/><path fill-rule="evenodd" clip-rule="evenodd" d="M15.762 30.764h-3.434v-14.35h3.434v5.39h5.282v-5.39h3.435v14.35h-3.435v-6.168h-5.282v6.168zm22.305-3.009c-.835 2.952-3.538 3.404-5.494 3.404-1.39 0-5.682-.306-5.682-5.614 0-3.611 2.475-5.583 5.93-5.583 5.137 0 5.412 4.514 5.454 5.785l.02.571h-8.114c.02 1.007.477 2.75 2.537 2.75.918 0 1.873-.39 2.143-1.313h3.206zm-3.061-3.18c-.042-2.236-1.458-2.522-2.226-2.522-.415 0-2.288-.041-2.6 2.522h4.826zm8.405-2.973c.856-1.147 2.247-1.64 3.663-1.64 1.432 0 3.538.39 3.538 4.27v6.538h-3.16v-6.03c0-1.026-.103-2.687-1.79-2.687-2.08 0-2.121 2.397-2.121 2.849v5.868h-3.16V20.352h3.04v1.25h-.01zm16.545-1.25h3.803l-4.176 4.098 4.555 6.314h-3.767l-2.957-4.321-1.079 1.084v3.237h-3.16v-14.35h3.16v7.896l3.621-3.958zm8.032 4.223c.311-2.563 2.184-2.522 2.605-2.522.767 0 2.179.286 2.225 2.522h-4.83zm4.68 3.18c-.27.924-1.23 1.313-2.143 1.313-2.06 0-2.521-1.743-2.537-2.75h8.115l-.021-.57c-.042-1.272-.311-5.786-5.453-5.786-3.45 0-5.93 1.972-5.93 5.583 0 5.308 4.285 5.614 5.68 5.614 1.957 0 4.66-.452 5.49-3.404h-3.201zm8.675-11.341v14.35h-3.16v-14.35h3.16z" fill="#fff"/></svg>