<svg width="230" height="133" fill="none" xmlns="http://www.w3.org/2000/svg"><g clip-path="url(#clip0)" fill="#fff"><path fill-rule="evenodd" clip-rule="evenodd" d="M67.293 66.229c0-3.413-2.445-5.326-6.848-5.326h-2.108v10.84c.3.076 1.73.414 3.085.414 3.727-.002 5.87-2.14 5.87-5.928zm-8.956-7.164h1.617c3.462 0 5.72-1.388 5.72-4.614.001-3.038-1.618-4.463-5.08-4.463-.79 0-2.106.262-2.257.3v8.777zm-4.364-4.352c0-4.387-.528-5.775-2.973-6.675V48h9.257c6.81 0 9.858 2.137 9.858 6.34 0 2.663-2.106 4.724-5.343 5.213 3.913.15 7 2.55 7 6.64 0 4.763-3.576 7.351-8.392 7.914-.903.113-1.807.15-2.822.15h-6.585V54.714zm29.767-1.537l-3.575 10.878h7.263l-3.65-10.878h-.039zm12.228 21.08h-4.854l-2.86-7.952h-8.805l-2.748 7.952h-3.047l7.261-20.292c.415-1.088.716-2.402.716-3.227 0-1.425-.716-2.212-2.22-2.7V48h6.773l9.784 26.256zm6.624-19.543c0-4.39-.789-5.777-3.236-6.677V48h7.602v26.256h-4.366V54.713zm13.661 0c0-4.39-.79-5.777-3.237-6.677V48h7.602v12.903L131.341 48h3.538l-8.392 9.902 10.085 16.354h-5.381l-7.713-13.277-2.862 3.6v9.677h-4.365V54.713h.002zm31.833-1.537l-3.573 10.878h7.263l-3.65-10.878h-.04zm12.229 21.08h-4.854l-2.86-7.952h-8.804l-2.748 7.952h-3.047l7.263-20.292c.412-1.088.714-2.402.714-3.227 0-1.425-.714-2.212-2.22-2.7V48h6.772l9.784 26.256zm5.123 0V54.715c0-4.39-.789-5.777-3.236-6.677V48h7.602v23.854c.225 0 1.429.3 2.634.3h1.129c4.628 0 5.795-1.612 6.397-3.45h.038v5.552h-14.564z"/><path d="M174.6 54.031h.492v-.62h2.884v-.845l-2.95-2.202h-.426v2.216h-1.695v.831h1.695v.62zm.494-3.017l2.166 1.566h-2.166v-1.566zm2.529 5.373c0 .562-.311.853-.834.853-.644 0-.971-.362-.971-1.134v-.145h-.405c0 .974-.093 1.56-.883 1.56-.862 0-1.247-.657-1.247-1.79v-.595h-.376v.593c0 1.805.572 2.666 1.629 2.666.76 0 1.188-.62 1.172-1.438h.008c.058.672.639 1.133 1.153 1.133.834 0 1.197-.614 1.197-1.566 0-.42-.152-.968-.333-1.314h-.682v.014c.317.31.572.78.572 1.163zm-4.812 4.65c0 1.407 1.334 1.856 2.826 1.856 1.433 0 2.427-.556 2.427-1.857 0-1.308-.994-1.862-2.427-1.862-1.492 0-2.826.455-2.826 1.862zm4.848 0c0 .671-.812.974-2.036.974-1.217 0-2.405-.146-2.405-.975 0-.837 1.188-.982 2.405-.982 1.224 0 2.036.305 2.036.982zm-1.059 4.015v-1.38h-.008c-.074.368-.319.5-.602.456l-3.087-.456v.477l2.839.398v.008l-2.839 1.213v.433l2.839 1.234v.008l-2.839.354v.859l3.695-.535v-1.33h-.008c-.052.209-.168.324-.297.324a.714.714 0 01-.275-.05l-2.065-.894v-.008l2.647-1.111zM57.39 80.506v-.541h-3.417v5.667h.607v-5.124h2.81v-.002zm4.51 5.124v-5.665h-3.128v2.3c0 2.356-.503 2.825-1.207 2.825h-.152v.54h.288c1.084 0 1.66-.795 1.66-3.184v-1.942h1.933v5.124h.606v.002zm5.11-5.665h-.647l-1.382 3.352-1.533-3.352h-.646l1.876 4.027-.231.533c-.168.39-.359.565-.75.565h-.359v.54h.495c.566 0 .893-.365 1.119-.884l2.058-4.781zm4.792 4.004c0-1.002-.686-1.672-1.75-1.672h-1.54v-1.791h2.937v-.541h-3.544v5.667h2.148c1.06-.002 1.749-.67 1.749-1.663zm-.609 0c0 .707-.438 1.123-1.198 1.123h-1.486v-2.253h1.486c.76-.002 1.198.412 1.198 1.13zm6.021 1.661v-5.665h-.574l-2.89 4.616v-4.616h-.606v5.667h.574l2.89-4.623v4.623h.606v-.002zm5.556 0v-5.665h-.606v2.538h-2.698v-2.538h-.607v5.667h.607v-2.586h2.698v2.586h.606v-.002zm5.558 0v-5.665h-.606v2.538h-2.7v-2.538h-.607v5.667h.606v-2.586h2.699v2.586h.608v-.002zm5.603 0l-2.083-5.667h-.51l-2.093 5.667h.646l.455-1.282h2.483l.454 1.282h.648zm-1.276-1.805h-2.124l1.07-2.991 1.054 2.991zm3.767-.526h1.406v2.331h.606v-5.665H96.32c-1.053 0-1.757.652-1.757 1.664 0 .81.47 1.401 1.222 1.584l-1.31 2.42h.71l1.238-2.334zm1.406-.541h-1.454c-.757 0-1.206-.421-1.206-1.131 0-.708.447-1.131 1.206-1.131h1.454v2.262zm8.137 1.21c0-1.001-.686-1.671-1.749-1.671h-1.542v-1.791h2.938v-.541h-3.546v5.667h2.148c1.063-.002 1.751-.67 1.751-1.663zm-.609 0c0 .708-.438 1.124-1.198 1.124h-1.486v-2.253h1.486c.76-.002 1.198.412 1.198 1.13zm5.909 1.662l-2.084-5.667h-.51l-2.092 5.667h.646l.455-1.282h2.482l.455 1.282h.648zm-1.278-1.805h-2.124l1.069-2.991 1.055 2.991zm6.268 1.805v-5.665h-.574l-2.89 4.616v-4.616h-.606v5.667h.574l2.89-4.623v4.623h.606v-.002zm-.87-7.027h-.51c-.032.39-.263.589-.654.589s-.622-.2-.654-.589h-.511c.048.708.503 1.002 1.167 1.002.66.002 1.114-.292 1.162-1.002zm3.153 7.027v-2.952l2.611 2.952h.805l-2.706-2.975 2.491-2.69h-.766l-2.435 2.697v-2.697h-.606v5.667h.606v-.002zm8.192 0l-2.083-5.665h-.511l-2.092 5.667h.646l.455-1.282h2.483l.454 1.282h.648v-.002zm-1.278-1.805h-2.124l1.071-2.991 1.053 2.991zm5.957 1.805v-5.665h-3.129v2.3c0 2.356-.503 2.825-1.205 2.825h-.151v.54h.287c1.087 0 1.661-.795 1.661-3.184v-1.942h1.933v5.124h.604v.002zm5.534-1.661c0-1.002-.694-1.672-1.757-1.672h-1.526v-2.332h-.606v5.667h2.132c1.053-.002 1.757-.67 1.757-1.663zm-.616 0c0 .707-.439 1.123-1.199 1.123h-1.47v-2.253h1.47c.76-.002 1.199.412 1.199 1.13zm5.502.023h-.607c-.151.692-.654 1.147-1.366 1.147-.374 0-.733-.143-.981-.397-.359-.366-.399-.756-.399-1.942 0-1.185.04-1.577.399-1.942a1.37 1.37 0 01.981-.398c.71 0 1.199.453 1.351 1.147h.622c-.192-1.068-.95-1.688-1.973-1.688a2.03 2.03 0 00-1.453.589c-.535.532-.535 1.089-.535 2.292 0 1.202 0 1.759.535 2.292a2.03 2.03 0 001.453.588c1.013-.002 1.789-.622 1.973-1.688zm1.98 1.638v-2.952l2.61 2.952h.806l-2.706-2.975 2.491-2.69h-.766l-2.435 2.697v-2.697h-.606v5.667h.606v-.002zm8.19 0l-2.084-5.667h-.51l-2.092 5.667h.646l.455-1.282h2.482l.455 1.282h.648zm-1.278-1.805h-2.124l1.071-2.991 1.053 2.991zm3.769-.526h1.406v2.331h.606v-5.665h-2.116c-1.053 0-1.757.652-1.757 1.664 0 .81.471 1.401 1.221 1.584l-1.31 2.42h.71l1.24-2.334zm1.406-.541h-1.454c-.758 0-1.204-.421-1.204-1.131 0-.708.446-1.131 1.204-1.131h1.454v2.262zm8.144 1.322c0-.43-.143-.78-.422-1.052-.136-.135-.24-.199-.503-.31.215-.095.303-.143.423-.262a1.33 1.33 0 00.415-1.002c0-.89-.67-1.49-1.678-1.49h-2.139v5.668h2.211c1.053-.002 1.693-.59 1.693-1.552zm-.696-2.594c0 .62-.414.986-1.118.986h-1.486v-1.966h1.486c.704 0 1.118.365 1.118.98zm.088 2.562c0 .636-.439 1.044-1.141 1.044h-1.549v-2.078h1.549c.702-.002 1.141.396 1.141 1.034zm5.797-1.64c0-.692-.04-1.41-.534-1.902a2.03 2.03 0 00-1.454-.589c-.558 0-1.071.207-1.454.589-.486.485-.534 1.176-.534 1.854v.438c0 1.13.016 1.775.534 2.292a2.02 2.02 0 001.454.588 2.02 2.02 0 001.454-.588c.518-.517.534-1.163.534-2.292v-.39zm-.608.668c0 .652-.008 1.266-.399 1.656a1.371 1.371 0 01-.983.405 1.37 1.37 0 01-.981-.405c-.367-.366-.399-.922-.399-1.537v-.564c0-.78 0-1.37.399-1.768a1.392 1.392 0 011.964 0c.375.374.399.965.399 1.633v.58zm1.262 2.014V87h.599v-1.37h3.809V87h.598v-1.91h-.678v-5.125h-3.105v1.91c0 1.384-.2 2.404-.718 3.215h-.505zm1.183 0c.455-.796.614-1.791.614-2.841v-1.743h1.925v4.584h-2.539zm8.934.54l-2.084-5.667h-.51l-2.092 5.667h.646l.454-1.282h2.483l.455 1.282H180zm-1.278-1.805h-2.124l1.071-2.991 1.053 2.991z"/></g><defs><clipPath id="clip0"><path fill="#fff" transform="translate(51 48)" d="M0 0h129v39H0z"/></clipPath></defs></svg>