<svg width="117" height="62" fill="none" xmlns="http://www.w3.org/2000/svg"><path fill-rule="evenodd" clip-rule="evenodd" d="M10.769 26.372v-5.173c0-2.468-.702-2.995-2.017-2.995-1.387 0-2.07.545-2.07 2.995v5.99c0 3.484 10.75 13.104 10.75 18.022v8.585c0 6.353-4.574 8.186-8.716 8.186C4.592 62 0 60.167 0 53.814v-2.631l6.663-3.939v5.953c0 2.45.684 2.995 2.071 2.995 1.333 0 2.017-.544 2.017-2.995V48.08C10.769 41.255 0 35.465 0 27.552V20.6c0-6.334 4.592-8.185 8.698-8.185 4.142 0 8.716 1.85 8.716 8.185v1.742l-6.645 4.03zM55.538 55.43h5.402l1.837 6.516H48.874V12.415h6.664V55.43zm53.43-43.015v6.515h-6.357v43.016h-6.68V18.93h-5.835l-.703-6.515h19.575zm-26.418 0h-9.994l-5.097 49.53h6.051l1.44-13.158h4.719l1.26 13.159h6.736L82.55 12.415zM75.563 42.27l1.44-18.168h.811l1.225 18.168h-3.476zM31.352 12.415h-6.969v49.53h6.663V18.369c2.72 0 4.088.127 4.088 4.773v11.852c0 1.597-1.422 2.087-2.99 2.196l1.568 5.88c5.348-.562 8.085-3.067 8.085-10.09v-10.8c0-6.752-3.08-9.764-10.444-9.764zm79.453-5.917V1.942h2.035c.414 0 .738.036.955.109l.504.436c.126.217.198.435.198.69 0 .326-.108.598-.324.816-.198.218-.541.363-.973.417l.36.218c.181.164.325.363.505.617l.792 1.235h-.774l-.613-.944c-.162-.273-.324-.472-.432-.636l-.306-.29-.288-.127-.324-.018h-.703v2.033h-.612zm.63-2.56h1.297c.288 0 .504-.036.648-.09l.361-.272.126-.4-.253-.526c-.144-.145-.396-.2-.738-.2h-1.441v1.49z" fill="#fff"/><path fill-rule="evenodd" clip-rule="evenodd" d="M108.266 4.338c0 2.377 1.963 4.32 4.376 4.32 2.395 0 4.358-1.943 4.358-4.32C117 1.942 115.037 0 112.642 0c-2.413 0-4.376 1.96-4.376 4.338zm.54 0c0-2.106 1.729-3.812 3.836-3.812a3.816 3.816 0 013.818 3.812 3.827 3.827 0 01-3.818 3.811c-2.125 0-3.836-1.706-3.836-3.811z" fill="#fff"/></svg>